<svg version="1.0" xmlns="http://www.w3.org/2000/svg" width="360" height="360" viewBox="0 0 270 270"><path d="M49.5 6c.3.5.8 1 1.1 1 .2 0 .4-.5.4-1 0-.6-.5-1-1.1-1-.5 0-.7.4-.4 1zm-2.9 1.8c-.3.5.1.9.9.9s1.2-.4.9-.9c-.3-.4-.7-.8-.9-.8-.2 0-.6.4-.9.8zM54 8c-2.4 1.4-5.4 2.3-6.5 2.1-.5-.2-.7.1-.2.5.4.4 0 1.8-.8 3.1-.9 1.3-1.2 2.3-.8 2.3.5 0 .1.5-.7 1.1-1.3.9-1.3 1 0 .6.8-.2 1.5-1 1.5-1.7s.7-1.5 1.5-1.7c1-.3 1.1-.2.4.4-.6.4-1 1.8-.9 3 .1 1.4-.3 1.9-1.2 1.6-.8-.3-1.3.2-1.3 1.2 0 .9.9 1.9 2.1 2.2 1.5.4 1.7.8.8 1.4-.8.4-2 .3-2.9-.4-1.3-1-1.3-1-.2.4.7 1 2.2 1.5 3.5 1.2 1.6-.3 1.3 0-.8 1.1l-3 1.5 2.8-.4c2.3-.3 2.8-.1 2.3 1.2-.5 1.1-.2 1.4.9.9 1.1-.4 1.4-.2.9.6-.5.8-.2.9.9.5.9-.3 1.9-.2 2.2.4.4.5 1 .7 1.4.5.4-.3.8.5.8 1.6.2 2 .1 2-1.3.2-1.4-1.8-1.4-1.8-.7 0 .4 1.3.3 1.7-.5 1.2s-1-.2-.5.9c.4 1.2.8 1.3 1.3.5.6-.9.9-.9 1.3.1s.6 1 .6.1c.1-.6.6-1.2 1.1-1.2 1.3 0 .9 3.2-.5 4.3-.5.5.1.5 1.4.2 2.9-.9 4.3 1 3 4.2-.6 1.7-.6 2.2.2 1.7.8-.4.9.1.4 1.7-.5 1.8-.4 2.1.4.9.6-.8.8-2.4.5-3.5-.7-2.3-.5-2.1 2.1 2 1.5 2.4 1.5 2.7.2 1.7-1.4-1.2-1.6-1.1-1.4.6.1 1.3.6 1.8 1.7 1.4.8-.3 1.2-.2.8.3-.4.4 0 1.4 1 2.2 1.5 1.2 1.5 1.2 0 .7-1.3-.4-1.6 0-1.4 1.9.2 1.3.6 2.9.9 3.4.4.6 0 1.6-.8 2.3-1.2 1-1.3 1.6-.3 2.8 1.1 1.3 1.1 1.4-.1.7-1.1-.6-1.3-.4-.8.8.3.9.3 1.6-.1 1.6-.4-.1-1.6-.1-2.7 0-1.6.1-1.7.3-.5 1 .8.6 1.8.7 2.4.4.5-.3.6-.1.2.6-.4.6-1.1.9-1.6.6-.4-.3-1.1.2-1.4 1.1-.8 2.1-.8 2.4.5 2.4.5 0 .8-.4.5-.8-.3-.5.1-.9.9-.9 1.1 0 1.2.4.4 1.3-.6.7-.6 1.3 0 1.6.5.1.2 1-.7 1.8-1.4 1.3-1.5 1.2-.9-.3 1-2.7-.7-2-2 .9-1.1 2.3-1 2.4.4 1.2 1.4-1.1 1.6-1.1 1 .4-.4 1.1 0 2.1 1.1 2.8 1.3.8 1.1.9-1.3.5-2.4-.5-2.7-.4-1.3.5.9.6 1.5 1.7 1.1 2.5-.3.9 0 2.2.7 3 1 1.2.7 1.3-1.7.9-2.7-.4-2.7-.3-.9 1.1 1.1.8 1.4 1.5.7 1.5s-.9.5-.5 1.2.3.8-.5.4c-.6-.4-.9-1.2-.6-1.7.4-.5.1-.9-.5-.9-.8 0-.9.7-.5 1.7.7 2 .8 2.3.6 4 0 .7-.6 1.3-1.2 1.3-.5 0-.8-.4-.5-.9.3-.5 0-1.1-.7-1.4-.8-.3-1.2.4-1.1 2.2 0 1.4-.3 2.9-.8 3.2-.5.3-.3.9.5 1.2 1.1.4 1.5.1 1.2-1.2-.2-1.1.4-1.7 1.8-1.8 2-.2 2-.1.4.8-1.5.9-1.6 1.3-.6 2.5.7.8.8 1.4.3 1.2-.8-.3-1.6.6-1.3 1.4 0 .2.2 1.1.4 2.1.3 1.4 0 1.6-1 .7-1-.8-1.5-.8-2.1.1-.4.8-.3.9.4.5s1.2-.1 1.2.8c0 .8.5 1.6 1.2 1.8.7.3.5.7-.6 1.1-.9.4-1.5.3-1.1-.2.3-.5.1-1.2-.4-1.5-.5-.4-1.2-.2-1.5.3-.4.5-.2 1.2.4 1.6.6.4.7 1.1.4 1.7-.5.7-.1.9.9.5 1.3-.5 1.5-.2.7 1.7-.5 1.3-.7 2.6-.4 2.9.2.2-.2 1-1.1 1.7-1.2 1-1.8 1-3.2-.1-1.6-1.2-1.7-1.2-.7.1 1.3 1.8 1.6 6.3.4 5.5-.4-.3-.6.4-.3 1.6.5 1.6.8 1.8 1.5.7.8-1 .9-1 .5.2-.2.9-1.3 1.4-2.7 1.2-1.9-.3-2-.2-.9 1.1.8.8 1.7 1.3 2 1.1.3-.2.6.3.6 1 0 .9-.7 1.2-1.6.8-1.2-.4-1.1 0 .4 1.8 1.1 1.3 1.4 2 .8 1.6-.8-.4-1.3-.2-1.3.4 0 .7-.7 1-1.5.6-.8-.3-1.5-.1-1.5.4 0 .9 1.5 1.4 3.3 1.1.5-.1.5.3.2.9-.4.6-1.3.9-1.9.7-.7-.3-1.3.1-1.3.8 0 .7.5 1.1 1.2.9.6-.3 1.1.6 1.1 2s-.4 2.2-1 1.9c-.5-.4-.7.1-.3 1 .4 1.1.1 1.5-1.3 1.2-1.1-.2-2.3.1-2.6.7-.4.7-.2.8.4.4.7-.4 1.2-.2 1.2.4 0 .6.4.9.8.6.5-.3.9.1.9.9s-.4 1.2-.9.9c-1.3-.9-5.1-1.4-4.4-.6.4.4 1.3.7 1.9.7 1.1 0 1.9 5.1 1 6.8-.2.4-1.3.3-2.3-.3-1.6-.9-1.8-.7-1.4 1.5.3 2 .1 2.3-1.3 1.9-1.5-.5-1.5-.4-.3.4.8.6 1.7.9 2 .7.3-.2.7.5.7 1.6.1 1-.3 1.9-.8 1.9-.6 0-.8-.4-.5-.8.3-.5-.1-.9-.8-.9-.8 0-1.2.7-.8 1.5.4 1.1.1 1.3-.9.7-.8-.5-1.1-.4-.6.1.5.5 1.6.9 2.4.9.9 0 1.8.7 2 1.5.4 1.2.3 1.2-.5.1-.7-.9-1.1-1-1.7-.2-.5.9-1.1.9-2.3-.1-1.5-1.2-1.6-1.1-.3.4.7 1 1.7 1.6 2.1 1.3.5-.3 1.1-.1 1.4.4.3.5-.2 1.1-1.2 1.3-1 .3-1.8 1.5-1.9 2.8-.1 1.3-.7 2.6-1.4 3-.8.6-.8.9 0 1.4.6.4 1.1.2 1.1-.3 0-1.9 1.6-1.2 1.7.8.1 1.1-.9 3.1-2.3 4.6-2.5 2.8-3.3 5.1-1.2 3.9 1-.6.9-.3 0 .8-.8.9-1.9 1.5-2.6 1.2-.9-.3-1.3.3-1.2 1.8.3 3.3-.4 4.1-2.2 2.6-1.5-1.2-1.6-1.1-.3.4 1.2 1.7.9 2.3-1.2 1.9-.5-.1-.6.3-.2.9.3.6 1 .8 1.5.5.4-.3 1.1.1 1.4.7.3.7.4.6.3-.4-.1-.9.2-1.8.7-2 .5-.2 1 .7 1.1 1.9.1 1.3-.1 2.1-.3 1.8-1.1-1.1-3.3 3.6-2.7 5.7l.7 2.1-2.3-2.1c-1.2-1.2-2.5-1.9-2.8-1.6-.3.4-.1.9.5 1.1.7.2 1 1.4.7 2.6-.4 1.8-.3 1.9.6.7 1.3-1.8 1.5-.1.2 1.9-.7 1.1-1 .9-1.6-.9-.6-1.8-.9-2-1.6-.9-1.2 2-1.1 3.7.2 1.9.9-1.3 1-1.3.6 0-.2.8-1.2 1.4-2.1 1.4-1-.1-1.5.1-1.2.4.3.3 0 1.2-.7 2-1 1.3-.9 1.4.1.8.7-.4 1.5-.1 1.8.8.3.9 1.1 1.3 1.7.9.6-.4.7-.1.2.6-.5.9-1.1.9-1.8.2-1.6-1.6-4.8 2.9-3.5 5.3.7 1.3.7 1.6-.2 1.1-.7-.4-1-.1-.8 1.1.2 1.5-.2 1.8-2 1.6-1.2-.2-2.2.2-2.2.8 0 .6.6.8 1.2.4.7-.4 1-.3.5.1-.4.5-1.8 1-3 1.2-1.8.2-1.9.1-.7-.8 1.3-.9 1.3-1 0-.7-.8.3-1.7 1.5-2.1 2.9-.6 2.2-.9 2-1.3-1.4-.1-.6.5-1.8 1.4-2.5 1.3-1.1 1.1-1.1-.8-.2-1.2.6-2 1.5-1.7 2 .3.5-.3 1.1-1.4 1.5-1.1.3-2.5 1.3-3.2 2.3-1.1 1.4-1.1 1.5.1.4 1.8-1.5 3.4-1.6 2.4 0-.4.7-.3.8.5.4.6-.4.8-1.2.5-1.8-.4-.7-.2-.8.4-.4.9.5.9 1.3.2 2.7-.6 1.1-1.5 1.7-1.9 1.5-.4-.3-1.5 0-2.4.7-1.1.9-1.2 1.8-.6 3.2.9 1.9.9 1.9.5-.2-.2-1.2.2-2.4 1-2.7.8-.3 1.4-.2 1.5.2 0 .4.2 2 .3 3.7.2 4.2 1.6 7.6 2.7 7 .5-.4.9.1.9 1s-.4 1.4-.8 1.1c-.5-.3-.9.1-.9.9s.3 1.4.6 1.3c2.5-.2 4 .4 3.5 1.6-.3.8.5 2.1 1.8 3 1.2.9 1.7 1.6 1 1.6s-1 .5-.6 1.1c.3.6.9.7 1.3.3.3-.5 1.6-1 2.8-1 1.6-.1 2 .3 1.5 1.5-.5 1.4-.3 1.4 1.1.2.9-.7 1.4-1.8 1-2.5-.3-.6.4-.2 1.6.9 1.3 1.1 2.6 1.9 3 1.8.3-.1.7 0 .9.1.1.2-.6.3-1.5.3-1 0-2.1-.4-2.4-1-.4-.5-.9-.5-1.3.1s.3 1.6 1.4 2.2c1.2.7 2 .7 2 .1 0-.5.9-.8 2-.6 1.1.2 1.8 0 1.5-.6-.4-.5-.1-.9.4-.9.6 0 1.1-.5 1.1-1.1 0-.8-.5-.8-1.5.1-.9.7-1.5.8-1.5.2 0-1 2.3-2.2 4.1-2.2.4 0 .6.7.3 1.5-.4.8-.1 1.5.7 1.5.7 0 .9-.3.6-.6-.3-.4-.2-1.5.4-2.6.7-1.4.7-2.3-.2-3.4-.9-1.1-.9-1.4 0-1.4.7 0 1-.4.7-.9-.3-.5.1-1.2 1-1.5 2.4-.9 2.7-.7 1 1-1.2 1.2-1.3 2-.6 3.5.6 1 1.3 1.9 1.6 1.9.2 0 0-.9-.6-2-1-1.9-.6-2.4 1.3-2.1.5.1.6-.3.2-.9-.3-.5-.1-1 .6-1s.4-.7-.7-1.6c-1.5-1.3-1.6-1.5-.2-1 1.2.3 1.5.1 1.1-.9-.3-.8-.8-1.3-1.2-1.1-.3.2-.7-.7-.8-2.1-.1-1.9.1-2.2.8-1.2.4.8 1.7 1.5 2.9 1.5 1.6.1 1.8-.2.9-1.2-.9-1.1-.8-1.4.1-1.4.7 0 .2-1-1.1-2.1-2.4-2.1-2.4-2.1-.2-1.5 1.8.6 2.2.4 1.7-.8-.3-.9-1-1.4-1.4-1.1-.5.3-1.1.2-1.4-.3-1-1.6 2.9-.9 4.1.7 1 1.4 1.1 1.2.6-.8-.4-1.5-.2-2.2.4-1.8.6.4 1-.3.9-1.6-.1-1.2.2-2.8.7-3.5.7-.9.6-1.1-.6-.6-.8.3-1.8 1.2-2.1 2-.3.9-.1 1.2.4.9.6-.3 1-.2 1 .4 0 1.6-2.1 2.4-3.2 1.3-.6-.6-.6-1.2.1-1.6.8-.5.8-1.3-.1-2.9-1-2-1-2.1.5-.8 1 .7 1.7 1.2 1.8 1 0-.2.2-1.4.3-2.6.4-3.2 1.1-3.6 3-1.8.9.9 1.6 1.2 1.6.6s-1.2-1.7-2.7-2.5c-1.6-.8-2.2-1.5-1.5-1.6.7 0 1.1-.4.7-.9-.3-.5-.1-1.2.5-1.6.6-.4.8-1 .5-1.5-.3-.5-.1-1.2.5-1.5.8-.5.7-1.2-.2-2.3-.7-.9-.8-1.3-.2-.9.6.3 2 0 3-.8 1.8-1.3 1.8-1.4.2-2-2.3-.9-2.3-2.3-.1-2.1 1 0 1.8-.6 1.8-1.4.1-.8.7-1.4 1.5-1.2 1.2.3 1.3.1.3-.9-1.8-1.8-1.6-3 .3-2.2 1.4.5 1.3.3-.2-1.5-2.1-2.5-2.5-2.7-2-1 .1.7.1 1-.1.5-.3-.4-1-.4-1.6 0-.7.4-.6-.1.2-1 .7-.9 1.1-1.7.7-1.7-.4 0 0-1 .9-2.3.8-1.3 1.2-2.7.8-3.2-.5-.4-.2-.5.5-.1s1 1.2.7 1.7c-.4.5-.8 1.8-1 2.8-.4 2.2 2 3.6 3.1 1.9.5-.7.2-.8-.6-.3-1 .6-1.2 0-.7-2.7.3-2.1.1-4.1-.6-4.8-1-1-.7-1 1-.1 1.6.8 2.4.8 2.9-.1.5-.7.3-.8-.5-.4-.8.5-1.4 0-1.8-1.3-.3-1.2-1-1.8-1.7-1.4-.7.4-.6.1.1-.9.7-.8.9-1.9.5-2.3-.4-.5-.1-.5.6-.1s1 1.1.8 1.5c-.3.4.1.8.8.8 1.1 0 1.2-.5.4-2.3-.6-1.3-1.5-2.1-2.1-1.7-.6.3-.7.1-.3-.5.3-.6 1.6-.9 2.7-.7 1.7.4 1.9.2.9-1-1-1.2-1-1.5.1-1.5s1.1-.2 0-.9c-1.3-.8-1.3-1.2 0-2.7.9-1.1.9-1.5.2-1-.8.4-1.3.2-1.3-.4 0-.6-.4-.8-1-.5-.5.3-1 .1-1-.6 0-.6.8-.9 1.9-.6 1.4.3 1.8.1 1.4-.9-.3-.8-1-1.1-1.7-.8-.6.3 0-.4 1.3-1.5 1.2-1.2 2.8-1.8 3.4-1.4.6.3.7.1.3-.5-.4-.6-1.4-.8-2.2-.5-1.4.5-1.5.3-.3-1.8.7-1.3 1.2-3 1-3.8-.1-.8.2-1 1-.5.8.4 1 .3.5-.4-.4-.6-1.2-1-1.9-.8-.7.1-.8.1-.4-.2.4-.2.3-1-.4-1.8-.8-1-.8-1.4 0-1.4.6 0 1.1.3 1.1.8 0 .4.9 1.3 2 2 1.9 1.2 2 1.1.8-1-.7-1.3-1.7-2.6-2.3-3-.6-.5-.3-.8.7-.8.9 0 2.2.8 2.7 1.7.6 1 1.1 1.3 1.1.8 0-.6-.5-1.6-1.2-2.3-.9-.9-.7-1.7.8-3.3 1-1.3 1.3-1.9.7-1.5-1.6.9-1.7-.6-.1-2.2.7-.7.8-1.2.2-1.2-1.5 0-3.5 3.8-2.3 4.2.7.2.6.8-.3 1.6-1.2.9-1.4.8-1.3-.6 0-.9.4-2.2.7-2.7.3-.6.4-1.8.3-2.8-.2-.9 0-1.5.5-1.2 1.3.8 1.9-3.2.6-4.6-.8-.9-.6-1 1.2-.6 1.2.3 2 .1 1.6-.4-.3-.5-1.3-.9-2.2-.9-1.5 0-1.5-.2-.2-1 .8-.5 1.6-1.8 1.8-3 .1-1.1.3-3 .5-4.3.2-1.6.8-2.1 2.2-1.9 1.2.2 1.6 0 .9-.5-.6-.4-1-1.6-.9-2.5.2-1.1-.2-1.5-1.3-1.1-1.1.3-1.3.2-.6-.4.6-.4 1-1.7.9-2.9-.1-1.1.4-2.1 1.1-2.1.9 0 1 .5.3 1.9-.6 1.2-.6 1.8.1 1.8.5 0 1-.7 1-1.5s.5-1.5 1.2-1.5c.6 0 .3-.7-.8-1.6-1-.8-1.2-1.2-.4-.8 1.2.5 1.2.4.3-.6-.9-1-.8-1.6.3-2.7 1.8-1.8 1.9-4 .1-2.5-1.7 1.4-1.6-3.1.2-5.2 1-1.2.9-1.5-.6-1.9-1.7-.4-1.7-.5 0-.6.9 0 1.7-.6 1.7-1.2 0-.5-.4-.8-.8-.5-1.1.6-.9-4 .1-5 .4-.4.2-1.3-.5-2.1-.6-.8-.7-1.3-.2-1.2 2 .4 2.4-.2 1.4-2.1-.9-1.6-.8-1.8.5-1.4.8.3 1.3.9 1.1 1.3-.2.3.1 1.5.5 2.6.9 1.8.9 1.8.5-.3-.3-1.4.1-2.5 1-2.9.8-.3 1.1-1 .8-1.5-.4-.6-.9-.6-1.4.2-.5.9-.9.9-1.4.1-.4-.6-.2-1.1.4-1.1.6 0 .8-.6.4-1.3-.6-1-.4-1 .7 0 .7.7 1.7 1.3 2.2 1.3.4 0 .5-.6 0-1.3-1-1.6-1.4-4.1-.5-3.2.4.4.7 1.2.7 1.7 0 .6 1.3 1.3 2.8 1.5 2.1.3 2.7 0 2.1-.8-.4-.8-.3-.9.5-.5 1.4.9.5 2.6-1.4 2.6-1 0-1.4.9-1.3 2.5.1 1.4.6 2.5 1.1 2.5.5 0 .7-.7.4-1.5-.8-1.9.5-2.6 2.3-1.4 1.1.6 1.2.9.2.9-.7 0-1 .5-.7 1 .4.6 1.1.8 1.6.5.5-.4.9-.1.9.5 0 .7-.7 1-1.5.7-.8-.4-1.7-.1-2.1.5-.5.7-.2.8.6.3 1-.6 1.2-.1.8 1.9-.4 1.8-.1 2.9.7 3.3.8.2 1.6 1.2 2 2.1.5 1.4.4 1.5-.6.4-.7-.6-1.8-1.2-2.3-1.2-.6 0 .2.9 1.8 1.9 2.8 1.9 2.8 1.9.6 2.6-2.2.7-2.2.8-.4 1.8 1 .6 2.5 1.7 3.2 2.4.8.7 1.7 1.1 2.2.8.5-.3.7.3.6 1.2-.2 1-.7 1.6-1.2 1.5-.5-.2-.8-.8-.7-1.3.5-1.5-1.5-1-2.1.6-.3.8 0 1.4.7 1.2.7-.1 1.1.4.9 1.1-.2 1 .2 1 2 .1 1.9-.9 2.1-.9 1.1.2-1.8 1.8-1.6 3.4.2 1.9 1.9-1.6 2-.3.1 1.5-.7.8-1.7 1.1-2.1.7-.5-.4-.5-.2-.1.5.3.6 1.6 1 2.8.8 1.1-.3 1.8-.2 1.4.2-.3.3 0 1.3.6 2.2.8 1 .4.9-1-.3-1.5-1.3-2.2-1.5-2.2-.6 0 .7 1 2.1 2.2 3.1 1.1 1.1 1.7 1.9 1.1 1.9-.5 0-1.8.7-2.9 1.5-1.3 1.1-1.4 1.4-.4 1.3.8-.2 1.8-.7 2.2-1.3.4-.5 1-.6 1.4-.2.4.3.1 1.4-.7 2.4-1.2 1.5-1.2 1.6.5 1 1.6-.6 1.7-.5.7.7s-.8 2 1.2 4c2.6 2.6 2.6 3.8-.1 2.9-1.4-.4-1.4-.3-.3.5.8.6 2.3.9 3.4.7 1.4-.3 1.6-.1.9.8-1.2 1.5-1.3 6.7-.1 6.7.5 0 .9.5.9 1.1 0 .5-.4.7-1 .4-.5-.3-1-.1-1 .4 0 1.7 1.8 1.3 3-.7 1-1.5 1.1-1.5.5.3-.4 1.1-.9 2.6-1.2 3.2-.3.8.4 1.3 1.8 1.3 1.9 0 2.1.2.9.9-.8.6-1.8.7-2.2.5-.4-.3-.5.2-.2 1 .3.9 1 1.6 1.6 1.6.5 0 .6-.5.3-1-.3-.6-.2-1 .3-1 1.8 0 2.1 2.7.6 4.9-.9 1.2-1.2 2.1-.7 2 1.8-.3 3.3.1 3.3 1 0 .5-.9.7-2 .4-1.1-.3-2 0-2 .6s.3 1 .8 1c1.8-.3 3.2.2 3.2 1.1 0 .5-.6.7-1.4.4-.8-.3-1.7-.1-2 .4-.3.5.2.9 1 .8 1.6-.1 2.3 1.4 2.8 6.4.2 2.4 1.1 2.9 2.4 1.4.4-.4.2-.5-.3-.1-.6.3-1.1-.4-1.2-1.6-.1-1.2-.3-3.2-.6-4.4-.3-1.3-.2-2.3.3-2.3s.9.8.9 1.7c-.1 3.5.9 5.8 2.2 5.5 1-.3 1 0-.1 1.2-1.2 1.5-.7 2.1 1.5 1.6.6-.1.4.4-.2 1.1-1 1-.9 1.7.7 3.4s1.7 2.2.6 2.2c-.8 0-1.3-.4-1-.9.9-1.4-.3-.9-1.6.8-.8.8-.9 1.4-.4 1.3 2-.3 4.7.1 4.1.8-.4.3 0 1.7.8 2.9.8 1.3 1.1 2.5.6 2.9-.5.3-1.2.1-1.6-.5-.3-.5-.4-1 0-1 .3 0 .1-.9-.5-2s-1.5-2-2.1-2c-.6 0-.3.7.5 1.6.9.8 1.4 1.9 1.1 2.4-.3.5-.1 1.1.5 1.5.6.4.7 1.1.4 1.7-.4.6-.2.8.3.5.6-.4 1.8.2 2.8 1.3 1.6 1.8 1.4 2.4-.6 2.2-.3-.1-.6.7-.6 1.6 0 2.3 2.8 5.4 4.4 4.8.7-.3 1.3-.1 1.3.4 0 .6-.9 1-2 1s-2 .4-2 .9c0 .4 1.1.7 2.4.6 2.1-.3 2.4 0 1.6 1.8-.4 1.2-1.4 2.1-2.1 1.9-.9-.2-.7.3.4 1.6.9 1 1.4 2.2 1 2.6-.5.4-.1.6.7.4 1-.2 1.5.4 1.4 1.9-.1 1.3.3 2 .7 1.7.5-.3.9.2.9 1 0 .9.5 1.6 1.1 1.6.5 0 .8.4.5.9-.4.5.2.8 1.1.6 1-.2 2.2-.4 2.6-.4.5-.1.5-.7.1-1.4-.5-.7 0-.6 1.1.3 1.7 1.3 1.8 1.3 1.3-.1-.3-.9-.1-1.6.6-1.6.6 0 1.2.8 1.2 1.8 0 1.1-.7 1.6-1.8 1.4-1-.2-2.1.1-2.4.7-.5.7-.2.8.6.3 1-.6 1.2-.4.7.8-.3.9-.1 1.9.5 2.3.7.5.8.2.3-.6-.6-1-.4-1.2.9-.7.9.4 1.4.3 1.1-.2-.3-.5-.1-1.2.5-1.6.6-.4.8-1 .5-1.5-.3-.5 0-1.2.6-1.6.8-.4.9-.3.5.4s-.3 1.2.3 1.2c.5 0 .8.9.6 2-.2 1.1 0 1.8.5 1.5 1.2-.7.2-5.8-1.3-6.7-.7-.5.6-.6 2.7-.3 3.4.4 3.7.3 2.1-.9-1.4-1-1.6-1.6-.6-3.4.6-1.2 1.4-2.2 1.7-2.2.3 0 .2.5-.2 1.1-.5.8-.1.8 1.4 0 1.7-.9 1.9-1.6 1.2-4-.6-2.2-.5-2.8.4-2.5.7.3 1.9-.3 2.7-1.3 1.3-1.6 1.2-1.7-.3-.4-2.6 2-2.2.6.5-1.9 1.5-1.4 1.7-1.9.5-1.5-1.9.7-1.9-1.4-.1-3.6.6-.8.9-2.2.7-3.2-.1-1.1 0-1.6.3-1.3.4.3 1.3 0 2.1-.7 1.3-1 1.4-.9.7.2-.6 1-.4 1.2.5.6 1-.6 1.2-.4.6 1.1-.6 1.6-.5 1.7.6.6s.9-1.7-1.2-3.4c-1.4-1.2-1.8-1.9-1-1.6.9.3 2.3-.5 3.4-2.1l2-2.6-2.1 1.8c-1.6 1.4-2.3 1.5-2.9.6-.4-.8-.3-1 .4-.5 1.2.7 1.6-.5 1.3-3.2-.1-.6.3-1.2.9-1.2.6 0 .8.4.5 1-.3.5-.2 1 .3 1 1.4 0 2.2-3.9 1-4.7-.7-.3-.8-.1-.4.5.5.8.2 1-.9.6-1.4-.6-1.4-.8.1-1.9 1.1-.7 1.4-1.7.9-2.5-.5-.9-.4-1.1.3-.6.7.4 1.2.2 1.2-.3 0-.6.5-1.1 1-1.1.6 0 .3 1.2-.7 2.6-1.7 2.7-1.7 2.7.6 1.5 1.2-.7 2-1.5 1.7-1.8-.3-.4-.1-1.2.5-1.9.7-.8.6-1.4-.2-2-.8-.5-1-.3-.4.7.5.8.4 1 0 .6-1.4-1.2-1.5-3.7-.2-3.4.7.1 1.4.4 1.7.8.3.3 1.4-.4 2.4-1.5 1.5-1.4 1.5-1.8.4-1.3-1.9.7-3-2.4-1.6-4.4.8-1.1.9-1 .4.3-.3 1-.2 1.9.2 2.2.4.2.9-.6 1-2 .1-1.3-.4-2.4-1.1-2.4-.8 0-.8-.3.2-.9.8-.5 1.1-1.6.7-2.6-.5-1.4-.4-1.5.7-.7 1.1.9 1.3.8 1.2-.6 0-.9-.5-2.4-1-3.2-.4-.8-.5-1.2 0-.8.4.4 1.6.3 2.6-.3 1.4-.7 1.9-.6 1.9.2 0 .7.3 1 .6.6.9-.9-2.2-4.8-3.2-3.9-.4.4-.2-.1.5-1 .7-1 1.7-1.6 2.1-1.3.4.3 1-.2 1.3-1 .4-.8.1-1.3-.6-1.1-.7.1-.9.1-.4-.1.4-.3.5-.9.2-1.4-.4-.5 0-.6.8-.3s2-.2 2.7-1.1c.7-.8.9-1.5.4-1.5-.4 0 .1-.7 1.2-1.6 1.8-1.4 1.8-1.5-.4-.4-1.2.6-2 1.6-1.6 2.2.5.7.2.8-.6.3-.9-.6-1.1-.4-.5.6.7 1.2.5 1.2-.6.1-1.2-1.1-1.2-1.4 0-2.1.7-.5 1.1-1.3.7-1.9-.3-.6-.1-1.4.5-1.8.8-.5.9-.3.4.6-.5.8-.3 1.1.6.8.8-.3 1.3-1.1 1.2-1.7-.2-.6-.4-1.6-.5-2.2-.2-.6.4-1.4 1.2-1.6 1.2-.4 1.2-.3.1.5-.7.5-.9 1.2-.4 1.5.5.3 1.5-.3 2.2-1.5.7-1.1.8-1.7.2-1.3-.6.3-1.1.2-1.1-.3 0-1.7 1.3-2.2 2.9-.9 1.4 1 1.4 1 .4-.4-.7-.9-.9-2-.5-2.4.4-.5.1-.5-.6 0-1.1.6-1.2.3-.3-1.2.7-1.4.7-2.3-.1-3.1-.8-.8-.5-.9.9-.6 1.2.3 2.4 0 2.8-.7.5-.7.4-1-.1-.6-.6.3-1.6.2-2.4-.4-1.2-.7-1.1-.9.5-1 1.1-.1 2.4-.1 2.8 0 .5.1.6-.3.2-.9-.6-.9.8-1.4 2.8-1.1.5.1.6-.3.2-.9-.4-.7-1.2-.7-2.5 0-2.7 1.5-3.2-.2-.9-3l2-2.5-1.1 2.5-1.1 2.5 2-2.5c1-1.3 1.7-2.8 1.5-3.2-.2-.4.4-1.1 1.3-1.7 1.2-.7 1.3-1 .4-1.1-.8 0-1.1-.6-.7-1.6.6-1.4.4-1.5-.9-.4-1.1 1-1.3 1.5-.4 2 .8.6.8.9 0 1.4-.6.4-.8 1.2-.5 1.8.4.7.2.8-.4.4-.6-.4-.8-1.4-.5-2.3.5-1.2.3-1.4-.8-.8-.8.5-.4-.3.7-1.6 1.2-1.3 2-2.9 1.7-3.5-.2-.6.4-1.4 1.3-1.8 1.4-.5 1.5-.4.4.9-1.7 2.1-.4 1.9 1.8-.3 1.6-1.6 1.7-2 .3-3.2-1.3-1.3-1.4-1.2-.8.4.6 1.6.5 1.7-.8.6-2.2-1.8.2-3.2 2.9-1.8 2 1 2 1 .6-.7s-1.3-1.8.3-1.2c1.1.4 1.6.3 1.2-.4-.4-.5-1.6-.7-2.7-.3-1.4.4-1.8.2-1.4-.5.4-.6 1.6-1.1 2.6-1.1s2.2-.5 2.6-1.1c.4-.7 0-.9-1.4-.5-1.2.4-2.3.2-2.8-.5-.4-.8-.3-.9.4-.5 2.1 1.2 3.3-.3 2.1-2.6-.8-1.5-.8-1.9.1-1.3.7.4 1 .1.8-1.1-.2-1.3.3-1.9 1.5-1.8 1.7.2 1.7.1.1-1.7-.9-1.1-1.4-2.2-1.1-2.6.4-.3.7-.1.7.5 0 .7.5 1.2 1.1 1.2.6 0 .8-.7.5-1.6-.5-1.2-.2-1.5.9-1 1.1.4 1.4.2.8-.7-1.3-2.2-1.2-3.6.4-3 1.3.5 1.3.3.3-1.7-.8-1.5-.8-2-.1-1.6.6.4 1.1.2 1.1-.4 0-.6.6-.8 1.3-.4.6.4.3-.3-.8-1.7-1.2-1.4-1.4-1.9-.4-1.1 1.4 1 1.8 1 2.3-.3.3-.9.2-1.4-.3-1.1-.5.3-1.1 0-1.4-.8-.4-1.1 0-1.2 2.1-.6 1.6.4 2.6 1.3 2.4 2.1-.2.8-.1 1.1.3.7 1-1 3.9 2 4 4.2.1.9-.5 1.7-1.3 1.6-.8-.1-1.6.5-1.8 1.2-.1.7 0 .8.3.2.7-1.4 2.3-.2 2.3 1.6 0 .8-.4 1.2-1 .9-.5-.3-.7 0-.4.9.3.8 1.1 1.4 1.7 1.2.7-.1.9-.1.5.1-.5.3-.3 1.3.3 2.4.5 1.1.6 1.9.2 1.8-2-.3-3.4.2-2.9 1 .4.5 0 1.2-.6 1.4-1 .4-1 .6 0 .6.7.1 1 .6.6 1.3-.4.7-.3.8.5.4.6-.4.9-1.1.6-1.6-.3-.5 0-1.2.6-1.6.8-.4.9-.3.5.4s-.2 1.2.4 1.2c.6 0 .4.8-.6 1.7-1.6 1.7-1.6 1.8-.1 2.1 1.9.4 2.3 2 .5 1.8-.7 0-1.4.3-1.5.9-.2.5 0 1 .5 1 1.6 0 3.2 1.7 3.1 3.3 0 1.4-.2 1.3-.9-.3-.7-1.8-.9-1.8-1.5-.3-.4 1-1.3 1.5-2.3 1.1-1.3-.4-1.4-.3-.3.5.8.6 1 1.5.6 2.2-.5.9-.4 1.1.3.6 1.6-1 1.5.6 0 2.4-1 1.1-.9 1.1.6 0 1.8-1.4 1.9-1.3 1.3.3-.4 1.1-.3 1.6.3 1.2.6-.3 1 .1 1 .9 0 .9.6 1.6 1.3 1.6.8 0 .7.4-.3 1-1.3.9-1.2 1.2.4 2.5 1.3.9 1.5 1.5.7 1.5s-2-.8-2.7-1.8c-.7-.9-1.4-1.2-1.4-.5 0 .6.5 1.5 1 1.8.8.5.7 1.1-.1 2.1-.7.9-.8 1.4-.3 1.3 2.1-.4 2.8.2 1.4 1.1-1.1.7-1.1 1-.2 1 .7 0 1.1.4.7.9-.3.5 0 1.3.6 1.7.7.4.9.3.6-.3-.4-.6 0-1.4.8-1.7 1.3-.5 1.4-.2.4 1.5-.6 1.2-1.7 1.8-2.5 1.5-.8-.3-1.4-.1-1.4.4 0 .6.6 1 1.4 1 .8 0 1.6.3 1.9.7.2.5.3.3.1-.3-.1-.6.3-1.1 1-1.1.6 0 1.2.8 1.2 1.8s-.4 1.5-.8 1.3c-.4-.3-.8 0-.8.6s-.5.8-1.2.4c-1-.6-1-.5-.1.8.7.8.9 1.9.5 2.3-.4.5-.1.5.6.1s1-1.1.8-1.5c-.3-.4.2-.8 1-.8 1 0 1.1.4.4 1.1-1.4 1.4-1.3 2.9.2 2 .7-.4.8-.3.4.5-.4.6-1.1.9-1.5.7-.4-.3-.8.1-.8.8 0 .8.5 1.3 1.1 1.2.6-.2.7-.1.3.2-.4.2-.2 1.1.5 2 .7.9.8 1.3.2.9-1.1-.6-1.9.8-2.9 5-.2.7.1 1.5.5 1.8.5.3.7 1.2.3 2-.3.8 0 1.5.7 1.5 1.4 0 .3 4.1-1.4 5.2-.7.5-.7.8.3.8s1.1.4.3 1.3c-.7.8-.7 1.7.2 2.9.7 1 1.5 1.6 1.7 1.3.3-.2.5.5.6 1.5.1 1.1-.3 2-.8 2-.6 0-.7-.4-.4-1 .3-.5.4-1 .1-1-.3 0-1 .9-1.6 1.9-.7 1.4-.7 2.2.2 2.7.7.4.8.3.4-.4s-.1-1.2.9-1.2c1.1 0 1.5.5 1.2 1.4-.3.7 0 1.9.6 2.6 1 1 .7 1-1 .1-1.9-1-2.2-.9-1.7.4.4.8 1.3 1.5 2.1 1.5 1.3 0 1.3.2.2 1.7-.8 1-.9 1.4-.2 1 .8-.5 1.1-.1.8 1.3-.2 1.1 0 2.2.6 2.5.5.4.9 1.4.9 2.3-.1 1.2-.5 1-1.4-.8-.8-1.4-1.2-2.8-1-3.2.3-.5.1-.8-.4-.8s-1.2.9-1.5 2c-.3 1.1-.1 1.8.3 1.5.5-.3 1.4.3 1.9 1.4 1.5 2.7 1.4 3.1-.6 2.5-1.5-.5-1.5-.4-.3.5 1.1.7 1.9.6 3.2-.6 1.6-1.4 1.7-1.4.5 1-.7 1.5-1.7 2.3-2.7 2-1.3-.4-1.3-.3 0 .5.8.6 1.8.8 2.4.5.5-.4.7.1.3 1.1-.4.9-.3 1.4.2 1.1.5-.3 1.3 0 1.7.6.4.8.3.9-.4.5s-1.2-.2-1.2.4c0 .6-.5.8-1.2.4-.7-.5-.8-.3-.4.5.5.7 1 1 1.3.7.9-.8 3 1.8 3 3.7 0 .9-.5 1.7-1 1.7s-.6-.7-.3-1.6c.4-1 .2-1.3-.6-.8-.7.4-.8.3-.4-.4s.2-1.2-.3-1.2c-1.4 0-1.4.6 0 3.2.9 1.6.8 2.3-.2 2.9-1 .6-1 .9-.2.9.6 0 1.5-.5 1.8-1 .3-.6 1.2-1 1.8-.9.9 0 .9.2 0 .6-.7.2-1.3.9-1.3 1.4 0 .6.4.8.9.4.5-.3 1.3 0 1.7.6.5.8.3.9-.6.4-1-.6-1.2-.4-.7.8.4 1.1.2 1.4-.7 1.1-.7-.3-1.9.3-2.7 1.3-1.2 1.6-1.2 1.7.2.6 1.6-1.3 2.9-.8 2.9.9 0 .5-.4.7-.8.4-.5-.3-.9.2-.9 1 0 .9.6 1.3 1.4 1 .8-.3 1.1-.1.8.5-.4.5-.2 1.6.5 2.4.7.9.8 1.5 0 2-1 .6-1.1.5-1.4-1.5 0-.6-.4-1-.8-1h-1.4c-.4 0-.1.7.6 1.5s.9 1.5.4 1.5-.1.5.9 1.1c.9.6 1.5 1.4 1.2 1.8-.2.5.2 1.4 1 2.1 1.4 1.1 1.4 1.5-.2 3.3-1.7 2-1.7 2 0 1.4 1.1-.4 1.6-.3 1.2.3-.3.6-.1 1 .4 1 .6 0 1.1.5 1.1 1 0 .7-.6.7-1.8.1-1.4-.7-1.9-.6-1.9.4 0 .7.7 1.1 1.5.7 1-.3 1.3-.1.8.6-.4.7-.4 1.2-.1 1.2 1.1 0 3.4-2.7 3-3.4-.3-.3-.2-.4.2-.1 1.1.8 1.3 3.6.2 2.9-.5-.3-.9-.3-.9 0 0 .9 6 3.7 6 2.9 0-.5.5-.1 1.1.7.8 1.2 1 1.2.7.1-.2-.8-1.2-1.5-2.2-1.7-1-.1-2.1-.5-2.4-.9-.4-.3.7-.4 2.3-.1 1.8.3 3.5 0 4.6-1 .9-.8 2.3-1.4 3-1.2.8.2 1.3-.4 1.3-1.5-.2-1.5.1-1.6 1.4-.5 1.4 1.1 1.5 1 .9-.6-.7-1.6-.5-1.7.9-.6 1.3 1.2 1.7 1.1 2.4 0 .5-.8.6-1.8.4-2.2-.3-.5-.2-.8.3-.7 2.1.4 3.4-.2 2.7-1.3-.5-.7-.3-.8.6-.3 1 .6.8 1.2-.8 2.6-2.1 1.7-3.1 3.6-1.3 2.5.5-.4 1.1-.3 1.4.1.2.5.2.2 0-.6s.2-1.1 1.1-.8c1.1.4 1.3.1.9-1-.5-1.2-.3-1.4.8-.8 1 .7 1 .3-.3-1.6-1.6-2.6-1.6-2.6 1-2.3 1.5.2 1.9.1.9-.2-1.3-.4-1.6-1.1-1.1-2.6.4-1.5.3-1.9-.7-1.3-.8.3-.3-.3 1-1.4 1.3-1.2 1.8-2.1 1.2-2.1-.7 0-1-.4-.7-.9.4-.5-.4-.7-1.6-.4-2.3.5-2.3.5-.3-1.1 1.1-1 1.4-1.5.8-1.1-.7.3-1.3.1-1.3-.5s-.4-.9-.8-.6c-.4.2-1.4.1-2.1-.3-1-.7-1.1-1.3-.1-3 .8-1.6.8-2.6 0-3.6s-.8-1.4.2-1.8c.7-.3.2-.5-1.1-.4-2.1.2-2.4-.2-2.5-3.6-.1-2.3.3-3.6 1-3.3.6.2 1.1-.2 1.1-.9 0-1-.5-1.1-1.9-.4-1.3.7-1.8.6-1.8-.2 0-.7-.3-.9-.6-.6-.4.4-.1 1.3.5 2.1.7.8 1.1 2.3.8 3.3-.4 1.4-.5 1.3-.6-.5 0-1.3-.5-2.1-1-1.8-.5.4-.8-.5-.6-1.9.1-1.4-.1-2.8-.5-3-.5-.3-.7-1.3-.5-2.3.2-.9.4-2.1.4-2.6.1-.4.7-.6 1.4-.3.8.3 1.4-.1 1.4-.8 0-.7-.6-1.1-1.3-.8-.6.2-1.5-.1-1.9-.6-.3-.6-1.1-.8-1.7-.5-.7.4-.8.2-.4-.5.4-.6 1.2-.9 1.7-.6.5.4.9.3 1-.2.5-5.3.4-6-1.1-5.5-1.3.5-1.3.3-.1-1.1.7-.9 1.7-1.5 2.1-1.2.5.3 1.1.1 1.5-.4.8-1.4-3.3-.5-5.4 1.1-1.4 1.1-1.4 1.1-.3-.4.7-.9.9-1.8.5-2-.4-.3-.3-.4.4-.2 2.4.6 2.2-1-.4-2.8-1.6-1-2.3-1.8-1.8-1.8.6 0 1.1-1 1.2-2.3.1-1.2.4-3.7.7-5.5.4-2.4.2-3.2-.9-3.3-2.9-.3-3.3-.4-4.2-1.3-.5-.5-.2-.6.6-.1 1.1.6 1.3.3.9-1.3-.4-1.4-.2-1.9.6-1.6.7.3 1.3-.2 1.3-1s-.4-1.3-.9-1c-.4.3-.8-.1-.8-.8 0-1-.3-.9-1.1.2-.9 1.3-1 1.3-.6 0 .2-.8 1.3-1.5 2.5-1.5 2 0 2.8-1.3 1.5-2.5-.4-.3-.2.1.2.9.6 1.1.4 1.3-.9.8-1-.4-1.9-.7-2.2-.7-.3 0 0-1.5 1.3-4.8 1.1-3 1.2-4.2.2-3.6-.5.3-.9 0-.9-.6s-.4-.9-.9-.6c-.5.4-.7-.7-.5-2.4.4-2.5.2-2.9-1.3-2.4-1 .3-1.4.2-.8-.3 1.5-1.3 1.8-5.6.2-4.7-.9.6-.9.5 0-.8.7-.8 1.1-1.8.8-2.1-.3-.4-.2-.4.2-.1.5.3.8 1 .8 1.5s.3.9.8.9h1.7c.6 0 1-.5 1-1 0-.6-.3-.9-.7-.9-2 .3-2.4-.2-1.2-1.7 1.3-1.6 2.3-5.1 1.1-3.9-.4.4-.7 1.2-.7 1.8 0 .7-.9 1.3-2 1.4-1.1.2-1.4 0-.7-.3 1.9-.9 1.4-2.4-.5-1.8-1 .3-.6-.2 1-1.1 3-1.8 3.8-3.1.8-1.5-2.4 1.2-3.4 1.3-2.7.1.4-.5 0-1.2-.6-1.5-.7-.3-.3-.3.9-.1 2.5.7 3.5-.5 2.2-2.5-.6-1-.9-1.1-.9-.3 0 .7-.5 1.3-1.2 1.3-.6 0-.8-.3-.5-.6.3-.4.1-1.6-.5-2.8-1.5-2.6-1.9-4.8-.8-4.1 1.6 1 2.1-2.9.5-4.1-1.3-1-1.4-1.2-.1-1.7.8-.3 1.6-.1 1.9.6.2.8.5.8 1.1-.1.4-.7.2-1.2-.4-1.2-.6 0-.9-.4-.6-.8.3-.5-.1-.9-.9-.9s-1.2.4-.9.9c.3.4.1.8-.4.8-.6 0-1.2-.7-1.6-1.5-.3-.8-.2-1.4.2-1.3.4.1 1.5-.2 2.5-.6 1.9-.9 2.3-2.7.5-2.4-.7.2-1.2-.5-1.2-1.5.2-1.3-.3-1.6-2-1.2-1.8.5-1.7.4.4-.9 1.4-.8 2.9-1.2 3.4-.9.5.4.6.1.2-.6-.4-.6-1.2-.9-1.7-.6-.5.4-1.7.1-2.6-.5-1.6-1-1.6-1.1.2-.6 2 .6 2 .6.1-.9-1.1-.8-1.6-1.5-1.2-1.5.5 0 .3-.7-.4-1.4-.7-1-.8-2.1-.2-3.2.8-1.5.9-1.5 1.5 0 .4 1 .3 1.5-.3 1.1-1.5-.9-1.2.7.5 2.9.8 1.1 1.8 1.6 2.2 1.2.4-.4.3-1-.3-1.4-2-1.3-2.2-11.5-.3-13.9 1-1.4.8-1.3-1 .2-2.3 1.9-2.4 1.9-1.8.1.6-1.4.3-1.7-.8-1.2-2.2.8-1.8-.2.6-1.5 1.7-.9 2-.8 1.4.2-.5.7-.4 1 .3.5.6-.4.9-1.3.5-2.1-.3-.8.1-1.5.8-1.5.7 0 .9-.3.6-.7-.4-.3-1.7.2-2.9 1.3-1.3 1-1.8 1.2-1.1.5.8-.9.9-2 .3-3.1-.5-.9-.5-2.2 0-3 .8-1.3 1.1-1.3 2.2-.1 1.1 1.1 1.1 1.3-.1.6-1-.6-1.2-.4-.6.5s.4 1.1-.5.5c-.8-.5-1.1-.4-.6.3 1 1.7 3.5.3 3.3-1.8-.1-1-.4-1.7-.8-1.4-.4.2-1 0-1.4-.5-.3-.5.3-1.5 1.2-2.1 1.5-.9 1.4-1-.7-.5l-2.5.6 2.5-2.2c1.4-1.2 1.8-2 1-1.7-5.4 2.1-5.6 2.1-3.3.4 1.5-1.1 2-2.2 1.6-3.4-.6-1.5-.5-1.6 1.2-.2 1.8 1.5 1.8 1.4.1-1.1-1.5-2.4-1.5-2.8-.1-4.2 1.4-1.5 1.3-1.6-1.3-1.2-2 .2-2.9-.1-2.9-1.1s.4-1.1 1.4-.3c.9.9 1.4.7 1.9-.5.3-.9 1.1-1.3 1.7-.9.6.3.7.1.3-.6-.6-.9-1.1-.9-2.1-.1-.9.8-1.4.6-1.9-.5-.3-.9-.2-1.3.4-1 .6.3 1-.1 1-.9s.8-2.3 1.8-3.2c1.6-1.7 1.6-1.7 0-1.1-1 .3-2 .2-2.3-.4-.4-.5-1-.7-1.4-.5-.4.3-.8-.1-.8-.8 0-.7.6-1.3 1.3-1.3.7 0 1.1.4.8.9-.3.4 0 .8.5.8 1.5 0 1.4-.7-.6-4.1-1-1.6-2.3-2.9-3.1-2.9-.7 0-1-.5-.7-1 .4-.6 1-.8 1.5-.5.4.3 1.3-.2 1.9-.9.9-1.1.9-1.4-.1-1.1-3.8.9-5.7 1.8-5.3 2.4.2.4-.2.8-1 .8s-1.3-.5-1.2-1.1c.3-1.3-2.6-1.5-3.6-.1-.4.6-.7.2-.5-.9.2-1-.3-2.1-1.1-2.4-.8-.3-1.1 0-.7.6.3.6.1 1.4-.5 1.8-.7.4-.9.3-.6-.3.4-.6 0-1.4-.9-1.7-1.1-.4-1.5-.2-1.1.7.3.8-.1 1.4-.8 1.4-.8 0-1.3-.9-1.2-1.9.1-1 .4-1.8.8-1.8s1.5-.3 2.5-.7c1.2-.4 1.5-.3 1 .5-.4.8-.2 1 .7.6.8-.3 2.1.2 2.9 1 1.2 1.1 1.8 1.2 2.8.3.9-.9 1.1-.9.6 0-.4.7 0 1 1.1.8 1-.2 2.3-.4 2.8-.4.6-.1.3-.5-.5-1-.8-.6-1.7-.8-2.1-.5-.4.2-1-.5-1.4-1.6-.7-2.1-2.7-2.9-2.3-.9.2.6-.3 1.4-1.1 1.7-.8.2-1.1 0-.8-.5.7-1.1-6-.9-7.1.2-.7.6-.8 1-1.1 3.7-.1.9-.4.9-1.2-.2-.9-1.3-1-1.3-.6 0 .2.8 1 1.4 1.6 1.3.6-.2 1.1.2 1.1.7 0 .9-3.1 1.5-5.5 1-.5-.1-.1.9 1 2.1 1.7 1.9 1.8 2.2.3 1.6-1-.3-2.1 0-2.5.7-.5.7-1.7 1.8-2.8 2.5l-2 1.2 2-.5c1.1-.3 2.7-.1 3.5.5 1.2.8 1.1.9-.5.7-1.4-.2-1.9.2-1.7 1.4.2 1.3-.2 1.6-1.5 1.1-1.2-.4-.9.1.7 1.5l2.5 2.1-2.8-.3c-2.7-.3-2.7-.3-1.2 2 1.9 2.9 1.9 3.4 0 3.4-.9 0-1.3.9-1.2 2.2.1 1.3-.2 2.5-.8 2.6-3.2 1.2-4.4 2.4-3.8 4 .6 1.5.5 1.6-1.2.2-1.7-1.4-1.7-1.4-.5.7.8 1.2 1.9 1.9 2.5 1.5.5-.3.2.6-.7 2.1-2.1 3.1-2.3 4.1-.5 3.1.6-.4.3.2-.7 1.4-1.9 2.2-3.2 3-2.1 1.3.3-.5.1-1.2-.4-1.5-.5-.3-.7 1-.5 2.9.1 1.9-.2 3.5-.7 3.5-.6 0-.8-.4-.5-.8.2-.4 0-1.4-.6-2.2-.8-1.2-.9-1.2-.4.2.3 1 0 1.8-.6 1.8-.7 0-.3.7.8 1.5 1.7 1.3 1.7 1.4.2 1.5-1.2 0-1.5.5-1.1 1.7.5 1.2.3 1.4-.8.8-.8-.5-.5.2.6 1.6 1.5 1.8 1.6 2 .3 1-2-1.5-2.2-1.2-.9 2.2.8 2.2.7 2.4-1.5 2.1-2-.2-2.2.1-1.5 1.5 1.2 2.2-.2 4.6-2.2 3.8-1.1-.4-1.4-.1-1.1.8.3.8 1.3 1.1 2.1.8 1.1-.4 1.4-.2.9.5-.9 1.5-3.6 1.6-3.6.1 0-.5-.5-.7-1.1-.3-.8.4-.7.9.2 1.5.8.5 1 .9.5.9-.4 0-.1 1.2.9 2.6.9 1.5 1.3 2.4.7 2-1.1-.7-3.5 1.8-2.6 2.7.3.3.1 1.4-.5 2.4-.9 1.6-1 1.5-.7-.7.1-1.4.6-3.1 1-3.8.5-.8.2-1-.9-.6-1 .4-1.3 1.3-.9 2.6.3 1.1.2 1.8-.3 1.5-1-.6-1 3.4 0 5 .4.7.3 1.4-.2 1.8-.6.3-.8 1.3-.5 2.3.5 1.4.4 1.4-.4.2-.8-1-.8-1.8 0-2.7.7-.9.7-1.3-.1-1.3-1 0-1.5 1.3-1.2 3.2 0 .5-.7.8-1.7.8-1.1.1-.6.6 1.3 1.5 2.4 1.2 2.5 1.4.5.8-2.1-.5-2.3-.4-1.3.9 1.5 1.7.7 2.9-1.3 2.1-.8-.3-1.1-1-.7-1.6.4-.6.1-.7-.6-.3-.9.6-.8 1.2.4 2.6 1.7 1.9.5 3.7-1.6 2.4-.8-.4-.8 0 0 1.5.8 1.4.9 2.7.2 3.9-.7 1.3-.6 2.3.2 3.2.9.9.9 1.1 0 .6-.7-.3-1.4.2-1.8 1.4-.3 1.1-1.1 2.1-1.6 2.1-.5.1-1.4.2-2.1.3-.6 0-1.2 1.8-1.4 4-.1 2.1-.7 4.2-1.4 4.6-.8.5-.7.9.5 1.4 1 .3 1.3 1.1.8 1.8-.4.7-.8 1.6-.8 2 0 1.2-1.2 1.4-2.2.4-.4-.5-.3-.6.4-.3 1.3.8 1.1-1.9-.3-3-.5-.4-.6-.4-.1.1.4.5-.1 1.8-1 2.9-1 1.1-1.3 1.7-.7 1.4 1.9-1.1 2.4 3.1.6 4.5-1.2 1-1.4 1-.8 0 .4-.6.3-1.2-.1-1.2-.5 0-1.4 1.4-2 3.1-.8 2-1.6 2.8-2.4 2.3-.8-.4-.9-.3-.5.5.4.6 1.1.9 1.6.6.4-.3 1.1.2 1.4 1.1.4.9.2 1.2-.5.8-.7-.4-.9.5-.6 2.9.5 3.7-.7 4.5-2.8 1.9-.8-1-1.1-.9-1.1.7 0 1.1.4 1.7.8 1.5.4-.3.8 0 .8.6s.4.9.8.6c.5-.3.9.1.9.9 0 1-.5 1.1-1.8.4-1.1-.6-2-.5-2.4.1-.6 1-.5 1.1 1.4 1.4 2.3.3 2 1.4-.3 1.2-2.3-.3-2.4-.1-1.4 1.2 1.1 1.3 1 1.5-.5.9-1-.4-1.6-.3-1.2.2.3.5-.1 1.2-.7 1.4-1 .4-1 .6 0 .6.7.1 1 .6.6 1.3-.4.7-.3.8.5.4.6-.4.9-1.2.6-1.7-.4-.5-.1-.9.4-.9 1.4 0 1.4 1.7.1 2.5-.8.5-.8 1.1-.1 1.9.8.9.7 1.3-.4 1.3-.8 0-1.2-.4-.9-.9.3-.4 0-.8-.5-.8-1.4 0-1.4 4.3 0 5.7.8.8.7 1.3-.2 1.8-.7.5-1 .4-.5-.3.3-.6.2-1.3-.3-1.7-.6-.3-1.5.4-2.1 1.5-.6 1.1-1.8 2-2.6 2-.9 0-1.2.5-.8 1.2.4.7.3.8-.5.4-.6-.4-.8-1.2-.5-1.8.4-.6-.2-.8-1.7-.3-1.6.4-2 .3-1.1-.3 1.1-.7.9-1-.7-1.5-1.3-.3-2.1-1.3-2.1-2.7 0-1.1-.4-1.9-.9-1.6-1.1.7-.9-1.3.3-3.3.6-.9.5-1.2-.1-.8-1.1.7-3.8-4.2-2.8-5.1.3-.3.5.1.5.8 0 1.7 1.3.5 1.6-1.5.1-.7-.4-1.1-1-.9-.7.3-1.3-.2-1.3-1.1 0-1 .6-1.4 1.5-1 1.2.4 1.2.2.4-.8-.7-.8-.8-1.8-.4-2.3.4-.4 0-.3-.8.3-.9.7-2.1.8-2.9.4-1-.7-.9-1 .8-1.6 1.1-.3 2.1-1.1 2.1-1.6 0-.6-.7-.6-1.9.1-3.1 1.6-3.5 1.2-1-1 1.3-1 1.9-1.9 1.2-2-.6 0-1.3.6-1.6 1.2-.2.7-.8 1-1.2.6-.4-.4-.3-1.4.3-2.1.7-.8.8-1.8.4-2.2-.4-.5.1-.5 1.1-.2 2.3.9 2.2 0-.2-1.3-1.7-.8-1.9-.7-1.6.8.2 1.1-.3 1.9-1.1 1.9-1 0-1.1-.4-.3-1.3.6-.8.6-1.4 0-1.8-.5-.3-.7-1.6-.3-2.8.4-1.6.2-1.9-.9-1.3-1.2.8-1.2.6 0-.8 1.5-1.8 2.6-2.3 1.6-.7-.4.6.1.7 1.1.3 1.4-.5 1.4-.7.1-1.5-.9-.4-1.4-1.7-1.2-2.8.2-1.1 0-1.8-.6-1.5-.5.4-.9.2-.9-.4 0-.5.6-1.2 1.3-1.4.6-.3-.2-.4-1.9-.2-3.1.3-3.3 0-3.5-4.8 0-.9-.4-1.5-.9-1.2-.6.3-.7-.1-.4-.9.5-1.2 1.1-1.3 2.7-.5 2.2 1 2.2 1 .2-.6-1.1-.9-1.9-2.3-1.7-3.1.2-.8-.2-1.4-.8-1.4-1.4 0-1.3-2.7.3-3.3.9-.4.9-.6-.1-.6-1.7-.1-2.7 2.6-1.5 4.2 1.2 1.6 1.1 3.6-.2 3.9-.5.2-1.1-1.7-1.2-4.2-.2-6.3-.2-6.2-1.5-5.4-.7.4-.8.3-.4-.5.5-.8 1.2-.9 2-.2.6.5 1.8.6 2.5.2.9-.6 1-1.1.2-1.5-.6-.4-1.1-.2-1.1.4 0 .6-.4.8-1 .5-.5-.3-1-1.3-1-2.1 0-.9.5-1.2 1.2-.8.7.5.8.3.3-.6-.6-1-1.1-.9-2.2.5-1.2 1.7-1.3 1.7-1.3.2 0-.9-.6-1.7-1.2-1.7-1 0-.9-.3.1-.9.7-.5 1-1.4.6-2-.4-.7-.2-1.8.5-2.6 1.4-1.7-.1-2.8-2.6-1.8-1.4.5-1.6.3-1.1-1.1.6-1.4.4-1.7-1-1.2-1.4.6-1.5.4-.6-.5 1.3-1.3 3.6-.3 2.7 1.3-.4.6.2.6 1.5-.1 2.4-1.3 2.8-2.3.6-1.5-1.8.7-2-1.2-.2-2 .6-.3.2-.3-1-.1-2.7.7-3.3-.3-2-3.5 1.3-3.1 1.7-5.4 1-4.6-.4.3-1.5-.2-2.6-1.1-1.1-1-1.7-1.2-1.3-.6.4.8.2 1.3-.4 1.3-.7 0-.9-.7-.6-1.6.3-.9.6-1.8.6-2.1 0-.3.8.1 1.8.8 1.5 1.2 1.6 1.2.5-.2-.7-.9-.9-1.9-.5-2.3.4-.4.2-.7-.3-.5-2.1.5-4.5-1.4-4.5-3.7 0-1.6.6-2.4 1.8-2.5 1.1 0 1.2-.2.4-.6-1-.4-1-.8 0-2.1 1.1-1.5 1.1-1.5-.4-.4-1.4 1.1-1.7 1-2.4-1-.4-1.3-.8-2.7-.9-3.1 0-.5-.9-1.4-2-2-1.1-.7-2.1-1.9-2.3-2.7-.2-1.3 0-1.2 1 .1.7.9 2.1 1.6 3.1 1.6.9 0 1.4-.3 1.1-.6-.3-.3-1.1-.6-1.7-.6-.7 0-1.3-.8-1.5-1.9-.2-1 0-1.6.5-1.3.5.4 1 0 1-.8 0-1.3-.4-1.2-1.9.2-1 .9-1.8 1.1-1.8.5 0-.7.9-1.7 1.9-2.4 1.8-1.1 1.8-1.3.3-2.4-1.2-.9-2.1-.9-2.9-.2-.9.7-1.3.7-1.3-.1 0-.6.7-1.4 1.5-1.7.8-.4 1.5-.9 1.5-1.3s-.7-.8-1.5-.8-1.5.4-1.5.9c0 .4-.5.8-1.1.8-.5 0-.8-.4-.4-.9.3-.5.1-1.2-.5-1.6-.5-.3-1-1.2-1-1.8 0-.8.3-.8.8-.2.4.5 1.8 1.1 3.2 1.2 2.4.3 2.5.3.3-.7-1.5-.6-2.1-1.5-1.7-2.5.3-.8.1-1.5-.6-1.5-.6 0-.9.4-.6.8.3.5-.1.9-.9.9-2 0-1.9-.7.3-2.4.9-.8 1.2-1.2.6-.9-.7.3-1.4-.4-1.7-1.5-.4-1.4-1-1.8-1.9-1.3-.7.4-1 .4-.6-.1.4-.4.2-1.5-.5-2.4-1-1.4-1-1.4.5-.3.9.7 1.8.9 2 .5.3-.4.3-.1.1.7-.2.8 0 1.1.4.6.4-.4.8-2 .9-3.6 0-2-.4-2.6-1.4-2.3-1 .4-1.1.8-.2 1.3.8.5.9 1 .2 1.4-1.7 1-2.5-1.3-1-3.1 1.1-1.4 1-1.5-1.2-.8-2.3.6-2.3.6-.7-.7 1.9-1.4 1.5-4.8-.6-4.8-.7 0-.7.4.1 1.2 1.5 1.5 1.6 2.8.2 2.8-.5 0-.9-.6-.7-1.3.1-.6-.4-1.1-1.1-.9-.8.1-1.1-.2-.8-.7.4-.5.1-1.1-.6-1.3-.7-.3-.5-.7.6-1.1 1-.4 1.5-.3 1.1.3-.3.6.1.7 1 .3 1.3-.4 1.4-.8.4-1.4-.7-.4-1.7-.5-2.1-.3-.4.3-.8 0-.8-.6s-.5-.8-1.2-.4c-1 .6-1 .4 0-.8 1-1.3 1-1.8.1-2.4-.8-.5-.9-.3-.4.7.7 1.1.6 1.2-.6.2s-1.8-1-2.9 0c-.8.6-.6.2.4-1.1 2.1-2.4 3.1-2.9 2-1-.5 1-.4 1 .6.1 1.1-1 1.6-.9 2.7.5 1.3 1.5 1.3 1.4.3-.6-.6-1.2-1.5-2-1.9-1.7-1.2.7-6.2-3.5-5.6-4.6.4-.5.2-.9-.3-.9-.6 0-1.3.7-1.6 1.6-.4 1-.2 1.3.6.8.7-.5.8-.3.3.6-.6.9-.4 1.1.5.5.9-.6 1.1-.4.5.5-.5.8-.4 1.1.3.6.6-.3 1.4-.1 1.8.5.4.8.3.9-.4.5s-1.2-.1-1.2.6c0 .8-.5.6-1.1-.5-.6-.9-1.5-1.5-2-1.1-.5.3-.8 0-.7-.8.2-.7-.3-1.2-1-1-.8.1-1.1-.2-.7-.8.3-.6 1.2-.7 1.8-.3.7.3.3-.3-.7-1.5-1.1-1.2-2.4-2.2-3-2.2-.6 0-.4.5.4 1 1 .6 1.1 1 .3 1-.9 0-1 .7-.3 2.6.7 1.6.7 2.3 0 1.9-.6-.3-1-1.3-1-2.2 0-1.3-.2-1.4-1.7-.2-1.6 1.3-1.7 1.2-.4-.4 1.1-1.4 1.1-2.1.3-2.9-.7-.7-1.2-.8-1.2-.4 0 .5-.7.2-1.6-.5-2-1.6-4.2-2-5-.8-.3.5-1 .7-1.5.4-.5-.4-.9-.1-.9.5 0 .7-.5.6-1.4-.2-1.5-1.4-1.2-2.8.5-2.8.6 0 .8.4.5.8-.3.5.1.9.9.9 2 0 1.9-1-.4-2.4-1.5-1-2-.9-2.5.2-.3.8-1.1 1.5-1.7 1.5-.8 0-.8-.4.1-1.5 1.4-1.7 1.2-1.8-1-.5zm1.5 3.8c1.1.6 1.5 1.2 1 1.2-.6 0-1.6-.5-2.3-1.2-.9-.9-1.2-.9-1.3.2-.1.8-.1 1.9 0 2.3.1.5-.3.6-.8.2-.6-.3-.7-1.3-.4-2.3.5-1.4.3-1.5-.8-.5-.7.7-1.8 1.3-2.3 1.3-.6 0-.3-.7.7-1.4 2-1.6 3.3-1.5 6.2.2zm10.7 1c.8.6 1.9.8 2.3.4.5-.4.5-.1.1.6s-1.2 1-1.7.7c-.5-.4-.9.2-1 1.2 0 1.5-.2 1.4-.9-.4-.5-1.3-1.5-2.1-2.2-1.9-.7.1-1 .1-.5-.1.4-.3.5-.8.2-1.3-.7-1.2 2.1-.6 3.7.8zM221 13c0 .5-.5 1-1.1 1-.5 0-.7-.5-.4-1 .3-.6.8-1 1.1-1 .2 0 .4.4.4 1zm7 8.5c.7.9.8 1.5.2 1.5-.5 0-1.2-.7-1.6-1.5-.3-.8-.4-1.5-.2-1.5s.9.7 1.6 1.5zm-22.7 2.8c.3.8-.1 1.4-.8 1.4-.7 0-1.1-.6-.8-1.4.3-.7.6-1.3.8-1.3.2 0 .5.6.8 1.3zM53.1 27.7c1.3 1.6 1.2 1.7-.3.4-1-.7-1.8-1.5-1.8-1.7 0-.8.8-.3 2.1 1.3zm151.4 2.1c-.3.3-1.1 0-1.8-.7-.9-1-.8-1.1.6-.5 1 .3 1.5.9 1.2 1.2zm24.9-.3c-.4.8-1.1 1.2-1.6.9-.6-.4-.5-1 .3-1.5 1.9-1.2 1.9-1.1 1.3.6zm.6 9.9c0 .3-.4.8-1 1.1-.5.3-1 .1-1-.4 0-.6.5-1.1 1-1.1.6 0 1 .2 1 .4zm-.4 4.7c0 1-.2 1.6-.5 1.4-.2-.3-1.1.1-2 .8-1.4 1-1.4 1-.3-.5.8-.9 1.1-2.1.8-2.6-.3-.5 0-.9.7-.9s1.3.8 1.3 1.8zm-33.3 3.6c-.3.7-.6 1.3-.8 1.3-.2 0-.5-.6-.8-1.3-.3-.8.1-1.4.8-1.4.7 0 1.1.6.8 1.4zM98.4 57.9c.3.5-.1 1.1-.9 1.4-.9.4-1.2.1-.8-.9.6-1.6 1-1.7 1.7-.5zm106.3 5.6c-.7-1.8-.6-1.9.6-.3.8 1 1.8 1.4 2.3 1 .4-.4.2.1-.5 1-1.1 1.5-1.1 1.8.2 1.8.8 0 1.7.7 2.1 1.5.7 1.9-1.8.7-5-2.4-1.2-1.1-2.4-1.8-2.6-1.5-.3.2-.5-.3-.5-1.1 0-1.3.4-1.2 2 .2 2 1.7 2 1.7 1.4-.2zm24.5 5.2c-.6.2-.9 1-.6 1.5.4.7.2.8-.5.4-1.3-.9-.5-2.6 1.2-2.5.9 0 .8.2-.1.6zM103 76.3c0 .5-.5.7-1.1.5-.7-.2-1.3-1.7-1.5-3.3l-.3-3 1.4 2.5c.8 1.4 1.4 2.9 1.5 3.3zm82.8 1.2c-.3.3-.9-.2-1.2-1.2-.6-1.4-.5-1.5.5-.6.7.7 1 1.5.7 1.8zm-80.7 6.8c-.1 1.2-1.5.9-1.9-.4-.3-.6.1-1 .8-.8.6.3 1.1.8 1.1 1.2zM232 89.5c.7.9.8 1.5.2 1.5-.5 0-1.2-.7-1.6-1.5-.3-.8-.4-1.5-.2-1.5s.9.7 1.6 1.5zm-122.6 2.6c-.9 1.5-2.4 1-1.8-.6.5-1.1.1-1.4-1.2-.9-1.5.5-1.6.4-.4-.4 1.6-1.2 4.4.4 3.4 1.9zM85 97c0 .5-.5 1-1.1 1-.5 0-.7-.5-.4-1 .3-.6.8-1 1.1-1 .2 0 .4.4.4 1zm127 8.4c0 .5-.7.1-1.5-1-.8-1-1.4-2.4-1.4-2.9 0-.6.6-.1 1.4.9.8 1.1 1.5 2.4 1.5 3zm-99-2c0 .3-.4.8-1 1.1-.5.3-1 .1-1-.4 0-.6.5-1.1 1-1.1.6 0 1 .2 1 .4zm-24.3 3.3c0 1-.4 1-1.6.1-.9-.7-1.8-1.3-2-1.5-.2-.1.5-.1 1.6 0 1.1 0 2 .7 2 1.4zm21.4 1.6c-1 .9-1.1.8-.5-.6.3-1 .9-1.5 1.2-1.2.3.3 0 1.1-.7 1.8zm103.5 8.8c.3.6.1 1.6-.6 2.2-1 .9-1.1.9-.5-.2.4-.8.2-1.7-.6-2.2-.9-.6-1-.9-.2-.9.6 0 1.5.5 1.9 1.1zM54 122.5c-.7.8-1.7 1.5-2.3 1.5-.6 0-.2-.7.9-1.5 2.5-1.9 3-1.9 1.4 0zm12 2.5c-.8.5-1.9 1-2.5 1-.5 0-.3-.5.5-1s2-1 2.5-1c.6 0 .3.5-.5 1zm99.7.4c.4.4.1.6-.7.4-.9-.2-1.4.3-1.2 1.2.2.8 0 1.1-.4.7-.4-.4-.9-1.4-1-2.1-.2-1.4 2-1.6 3.3-.2zm-101.6 5.5c-.5.9-.6 2.3-.3 3.1.2.8.2 1.2-.2.8-1.4-1.2-1.3-5.5 0-5.5.9 0 1 .6.5 1.6zm99.7.1c-.7 1-1.4 1.8-1.5 1.6-.6-.6.9-3.6 1.8-3.6.5 0 .4.9-.3 2zM98 132c0 .5-.8 1-1.7 1-1.5 0-1.6-.2-.3-1 1.9-1.2 2-1.2 2 0zm139.4 1.9c.3.5-.2 1.5-1.2 2.2-1.6 1.3-1.6 1.3-.2-.5 1.4-1.8 1.3-1.9-.3-1.3-1.1.4-1.6.3-1.2-.3.8-1.2 2.2-1.3 2.9-.1zm-138.4.7c0 .8-1.9 1.3-2.4.6-.3-.5.1-.9.9-.9s1.5.2 1.5.3zm23.3 1.7c1.8 1.9 1.9 3.7.1 3-.8-.3-1.2-.8-1-1.1.3-.3.1-1.1-.5-1.9-1.4-1.7-.2-1.7 1.4 0zm-59.8 4.5c-.3.3-1.1 0-1.8-.7-.9-1-.8-1.1.6-.5 1 .3 1.5.9 1.2 1.2zm154.1.4c-.1.7-.5 1.8-.9 2.5-.4.6-.2 1.4.3 1.6.6.3.5.4-.2.3-1.5-.3-1.8-2.6-.5-4.4.5-.6 1.1-1.2 1.2-1.2.2 0 .2.6.1 1.2zm-114.3 3.3c-.3.9-.8 1.4-1 1.1-.3-.3-.2-.9.2-1.5.9-1.6 1.5-1.3.8.4zM157 146c0 .5-.2 1-.4 1-.3 0-.8-.5-1.1-1-.3-.6-.1-1 .4-1 .6 0 1.1.4 1.1 1zm82.4 8.3c-.4 2.5-1 3.1-1.9 1.8-.3-.6-.1-1.1.6-1.1.8 0 .9-.4 0-1.3-.8-1-.7-1.4.3-1.4.9 0 1.3.8 1 2zM216 157c-1.2.8-1.2 1-.1 1 .8 0 1.2.3.8.6-.9.9-2.8-.6-2.2-1.7.4-.5 1.2-.9 1.8-.9.7 0 .6.4-.3 1zm-158.4 5.2c-.9.5-1.4 1.3-1.1 1.9.4.5.1.9-.4.9-1.4 0-1.4-.6.1-2.9.7-1.1 1.6-1.7 2.1-1.4.5.3.2 1-.7 1.5zm-13.1 1.7c.3.5.2 1.2-.3 1.5-.5.3-.9-.1-.9-.9 0-1.7.3-1.9 1.2-.6zm118 6.1c.3.6-.1.7-.9.4-1.8-.7-2.1-1.4-.7-1.4.6 0 1.3.4 1.6 1zm79 2.8c-.3.3-1.1 0-1.8-.7-.9-1-.8-1.1.6-.5 1 .3 1.5.9 1.2 1.2zM39.4 177c-.6.6-1 .3-1-1s.4-1.6 1-1c.7.7.7 1.3 0 2zm16.6-2.4c0 .8-1.9 1.3-2.4.6-.3-.5.1-.9.9-.9s1.5.2 1.5.3zm-.3 3.8c0 .8-.6 1.2-1.4.9-.7-.3-1-.9-.7-1.4.8-1.4 2.1-1.1 2.1.5zM34 194c0 .5-.5 1-1.1 1-.5 0-.7-.5-.4-1 .3-.6.8-1 1.1-1 .2 0 .4.4.4 1zm215.6 5.1c.3.6.2 1.5-.4 2.1-.6.6-1.2.6-1.7-.3-.5-.8-.4-1 .3-.5.7.4 1.2.3 1.2-.3 0-.5-.8-1.2-1.7-1.4-1.6-.4-1.6-.5-.1-.6.9 0 2 .4 2.4 1zm-130.6 1c0 .5.5.7 1.2.3.7-.4.8-.3.4.4-.4.6-1.3.9-2.1.5-1.7-.6-2-2.3-.5-2.3.6 0 1 .5 1 1.1zm-68.7 2.4c.4.8.2 1.7-.4 2-.5.4-.7 1.1-.4 1.6.3.5-.1.6-1 .2-1.2-.4-1.3-.8-.5-1.3.9-.5.9-.9.1-1.4-1.6-1-1.4-2.6.3-2.6.8 0 1.6.7 1.9 1.5zm74.1 8.1c.3.8.2 1.2-.4.9-.6-.3-1-.1-1 .4 0 .6.8 1.1 1.8 1.2 1.1 0 1.2.2.4.6-.7.3-1.9 0-2.7-.7-1.1-.9-1.2-1.5-.2-2.5 1.5-1.8 1.4-1.8 2.1.1zm20 0c.3.8.2 1.2-.4.9-.6-.3-1-1-1-1.6 0-1.4.7-1.1 1.4.7zM25 215.5c-.7.8-1.7 1.2-2.3.8-.6-.4-.3-.9.9-1.4 2.7-1.1 2.8-1.1 1.4.6zm101.2.4c-1.1.7-1 .9.3 1.5.9.3 1.3 1 1 1.6-.3.5-.1 1 .4 1 .6 0 1.1.5 1.1 1.1 0 .8-.5.8-1.5-.1-.8-.7-1.3-1.6-1-2 .3-.4-.2-1.1-1.1-1.4-1.7-.6-1-2.6.9-2.6.8 0 .8.3-.1.9zM22.5 222c-.3.5-1.4 1-2.3 1-1.5 0-1.5-.2-.2-1 2-1.3 3.3-1.3 2.5 0zm-14 20.8c-.3.3-1.1 0-1.8-.7-.9-1-.8-1.1.6-.5 1 .3 1.5.9 1.2 1.2zm31.2-.3c0 .8-.4 1.2-.9.9-.4-.3-.8-.9-.8-1.5 0-.5.4-.9.8-.9.5 0 .9.7.9 1.5zm-31.6 3.2c1.3 1.6 1.2 1.7-.3.4-1-.7-1.8-1.5-1.8-1.7 0-.8.8-.3 2.1 1.3zm26.1 3.5c-.8.8-.9.4-.5-1.3.4-1.3.8-1.8 1.1-1 .2.7-.1 1.8-.6 2.3zM15 255.6c0 .8.5 1.4 1 1.4.6 0 1 .5 1 1 0 .6-1.1.3-2.4-.6-1.4-.9-2.2-2.2-1.9-3 .6-1.7 2.3-.9 2.3 1.2zm18 .4c0 .5-.5 1-1.1 1-.5 0-.7-.5-.4-1 .3-.6.8-1 1.1-1 .2 0 .4.4.4 1z"/><path d="M63 8.2c0 .4.4.8.9.8.6 0 1.2-.4 1.5-.8.3-.5-.1-.9-.9-.9s-1.5.4-1.5.9zm7.8 2.5c.7.3 1.6.2 1.9-.1.4-.3-.2-.6-1.3-.5-1.1 0-1.4.3-.6.6zm-26.7 1.9c0 1.1.3 1.4.6.6.3-.7.2-1.6-.1-1.9-.3-.4-.6.2-.5 1.3zm31.4-.5c-.3.4.2.6 1 .5 2.1-.3 2.8-1.3 1-1.3-.9 0-1.8.4-2 .8zM82 16c-.9.6-1 1-.3 1 .6 0 1.5-.5 1.8-1 .8-1.2.4-1.2-1.5 0zm147.6 1.8c-.2.4-.1 1.4.4 2.2.7 1.1.9.9.7-.8-.1-2.4-.3-2.6-1.1-1.4zM52 32c-.9.6-1 1-.3 1 .6 0 1.5-.5 1.8-1 .8-1.2.4-1.2-1.5 0zm145.3 4.3c0 .8.6 1.4 1.4 1.4.9 0 1-.4.2-1.4-.6-.7-1.2-1.3-1.4-1.3-.1 0-.2.6-.2 1.3zm-1.4 4.1c.7.9.8 1.7.2 2-.5.3-1.2.1-1.4-.4-.3-.6-.4-.5-.3.1.1.7.9 1.3 1.8 1.5 1 .1 1.5-.4 1.3-1.5-.2-.9-.4-1.9-.4-2.4-.1-.4-.6-.7-1.2-.7-.8 0-.8.4 0 1.4zM60.3 41.5c0 .8.4 1.2.9.9.5-.3.6-1 .3-1.5-.9-1.3-1.2-1.1-1.2.6zM191 52c0 .5.5 1 1.1 1 .5 0 .7-.5.4-1-.3-.6-.8-1-1.1-1-.2 0-.4.4-.4 1zm-128 .5c0 .2.6.8 1.3 1.4 1 .8 1.4.7 1.4-.2 0-.8-.6-1.4-1.4-1.4-.7 0-1.3.1-1.3.2zm.3 4c0 .8.4 1.2.9.9.5-.3.6-1 .3-1.5-.9-1.3-1.2-1.1-1.2.6zm.7 2.6c-1.3.7-1.3.9 0 .9.9 0 1.1.3.5.8-1.7 1.2-4.1 4.7-2.7 3.8.7-.4 1.2-.2 1.2.5 0 1.6 1.1.5 1.4-1.4.1-.8.8-2.2 1.4-3 1.5-1.8.2-3-1.8-1.6zm139.3 12.6c.1 1.5.5 1.9 1.2 1.3.7-.6 1.6-.5 2.2.1.8.8 1.3.7 1.8-.3.5-.7.5-1 0-.6-.4.4-1.4.3-2.2-.3-.7-.6-1.3-.8-1.3-.3s-.5.2-1-.6c-.7-1.2-.9-1-.7.7zm-22.5 5c.6.2.9 1 .6 1.5-.4.7-.2.8.5.4 1.3-.9.5-2.6-1.2-2.5-.9 0-.8.2.1.6zm-76.1 2c-1.1 1.1-.8 2.1.9 2.7 1.3.5 1.4.4.6-.7-.7-.8-.9-1.7-.5-2 .3-.4.4-.7.1-.7-.2 0-.8.3-1.1.7zm100.9 5.2c.9.9 3.4.9 3.4.1 0-.5-.9-.8-2-.7-1 .1-1.7.3-1.4.6zM59 86c.6 1.1 1.3 2 1.6 2 .2 0 0-.9-.6-2s-1.3-2-1.6-2c-.2 0 0 .9.6 2zm116.5 0c-.3.5-.1 1 .4 1 .6 0 1.1-.5 1.1-1 0-.6-.2-1-.4-1-.3 0-.8.4-1.1 1zm-98 1.1c-.4.6-.5 1.2-.2 1.5.2.3.7-.2 1-1.1.7-1.7.1-2-.8-.4zm-7 8.9c-.3.5-.2 1 .4 1 .5 0 1.3-.5 1.6-1 .3-.6.2-1-.4-1-.5 0-1.3.4-1.6 1zm39 0c-.3.6.1.7.9.4 1.8-.7 2.1-1.4.7-1.4-.6 0-1.3.4-1.6 1zm98.5 2c-.9.6-1 1-.3 1 .6 0 1.5-.5 1.8-1 .8-1.2.4-1.2-1.5 0zm25.1 4.4c-.8 1-.8 1.6.3 2.5 1.1.9 1.6.9 2.2 0 .4-.8.3-.9-.4-.5s-1.2.1-1.2-.9.5-1.3 1.2-.9.8.3.4-.4c-.9-1.5-1.1-1.5-2.5.2zm-179.4.3c-1.1 1.1-.8 2.1.9 2.7 1.3.5 1.4.4.6-.7-.7-.8-.9-1.7-.5-2 .3-.4.4-.7.1-.7-.2 0-.8.3-1.1.7zm15.8 3.2c-.3.5 0 1.3.6 1.7.7.4.9.3.5-.4-.3-.5 0-1.3.6-1.5.9-.4 1-.6.1-.6-.6-.1-1.4.3-1.8.8zm44.4-.7c0 .2-.2 1.2-.3 2.4-.2 1.7.2 2 1.7 1.6 1.7-.4 1.8-.6.3-1.4-.9-.5-1.4-1.3-1.1-1.9.4-.5.4-.9.1-.9-.3 0-.6.1-.7.2zm93.7 4.6c-.2.4.4.9 1.5.9 1.1.1 1.7-.2 1.4-.8-.7-1.1-2.2-1.2-2.9-.1zm-41.3 4.9c-1.5.5-1.7 2.3-.4 2.3.5 0 1.1-.7 1.5-1.5.3-.8.4-1.5.3-1.4-.1 0-.8.3-1.4.6zm-113.9 1.2c.4.5 0 1.2-.6 1.4-1 .4-1 .6 0 .6.8.1 1 .6.6 1.3-.4.7-.3 1 .1.5 1.3-1.2 1.6-4.7.4-4.7-.5 0-.8.4-.5.9zm112.1 3.1c-.3.5-.3 1 .2 1 .4 0 .1.5-.7 1.1-1 .7-1.1.9-.2.7.8-.2 1.3-.7 1.2-1.2-.1-.5.4-1.3 1.2-1.7.9-.6.9-.9.1-.9-.6 0-1.5.4-1.8 1zM69 122.9c0 .6.4 1.3 1 1.6.6.3.7-.1.4-.9-.7-1.8-1.4-2.1-1.4-.7zm166 1.3c0 1.4 1.5 1.6 2.7.3 1-1.1.9-1.3-.7-1.2-1.1.1-2 .5-2 .9zM91 125c0 .5.5 1 1.1 1 .5 0 .7-.5.4-1-.3-.6-.8-1-1.1-1-.2 0-.4.4-.4 1zm89.6.9c-.3.5.2 1.5 1.2 2.2 1.5 1.2 1.6 1.2.5-.2-.7-.9-1-1.9-.6-2.2.3-.4.4-.7 0-.7-.3 0-.8.4-1.1.9zm57.4-.5c0 .2.8 1 1.8 1.7 1.5 1.3 1.6 1.2.3-.4s-2.1-2.1-2.1-1.3zm-1.4 3.3c-.6 1.4-.5 1.5.5.6.7-.7 1-1.5.7-1.8-.3-.3-.9.2-1.2 1.2zm-116.8 1c.6.2 1 .9.7 1.3-.3.5 0 1.2.6 1.6.8.4.9.3.5-.4s-.2-1.2.4-1.2c.6 0 .8-.5.5-1-.3-.6-1.4-1-2.3-.9-1.1 0-1.2.2-.4.6zm118.7.3c-.3.6.1.7.9.4 1.8-.7 2.1-1.4.7-1.4-.6 0-1.3.4-1.6 1zm-191.7 5.7c.7.3 1.6.2 1.9-.1.4-.3-.2-.6-1.3-.5-1.1 0-1.4.3-.6.6zm166.2 2.4c0 .5.5.7 1 .4.6-.3 1-.8 1-1.1 0-.2-.4-.4-1-.4-.5 0-1 .5-1 1.1zm-117 3.3c.7.7 1.3.7 2 0 .6-.6.3-1-1-1s-1.6.4-1 1zm55.6 1.4c-.2.4-.1 1.4.4 2.2.7 1.1.9.9.7-.8-.1-2.4-.3-2.6-1.1-1.4zm-54.3 1.7c0 .8.4 1.2.9.9.5-.3.6-1 .3-1.5-.9-1.3-1.2-1.1-1.2.6zm27.3.1c-.5 1.4-.4 1.5.9.4 1.7-1.4 1.9-2 .6-2-.5 0-1.2.7-1.5 1.6zm-79.8.1c.6.3 1 .9.6 1.4-.8 1.4.2 1.1 1.4-.4.8-1 .6-1.3-1.1-1.4-1.2 0-1.6.1-.9.4zm128.5 1.9c-.3.8-.2 1.9.3 2.4s.9-.1.9-1.6c0-2.8-.3-3-1.2-.8zm65.2 2.4c-.3.6.1.7.9.4 1.8-.7 2.1-1.4.7-1.4-.6 0-1.3.4-1.6 1zm-68.8 1.1c.7.7 1.5 1 1.8.7.3-.3-.2-.9-1.2-1.2-1.4-.6-1.5-.5-.6.5zm43 0c.7.7 1.5 1 1.8.7.3-.3-.2-.9-1.2-1.2-1.4-.6-1.5-.5-.6.5zm-172 4c.7.9 1.1 1.8.9 2-.2.2.2.9.9 1.6 1 .9 1.3.7 1.1-1.2 0-1.3-.3-2.1-.5-1.9-.2.2-1.1-.2-2-.9-1.4-1-1.4-1-.4.4zm199.9 4.5c-.8 2-.8 2.4.2 2.4.4 0 .8-.9.9-2 .2-2.4-.3-2.6-1.1-.4zm-75.1 3.3c-.6 1.1 1.3 2.6 2.2 1.7.4-.3.1-.6-.6-.6s-.9-.5-.6-1c.3-.6.4-1 .1-1-.3 0-.7.4-1.1.9zm77.5 1.5c0 .2.7.7 1.6 1 .8.3 1.2.2.9-.4-.6-1-2.5-1.4-2.5-.6zM131 166c0 .6.7 1 1.5 1s1.5-.2 1.5-.4-.7-.6-1.5-1c-.8-.3-1.5-.1-1.5.4zm1.7 5.1c.7.7 1.5 1 1.8.7.3-.3-.2-.9-1.2-1.2-1.4-.6-1.5-.5-.6.5zm1.4 3.5c0 1.1.3 1.4.6.6.3-.7.2-1.6-.1-1.9-.3-.4-.6.2-.5 1.3zm110 1.7c-1.3 2.1-1.2 2.1.5.5 1-1 1.6-2 1.3-2.2-.3-.3-1.1.5-1.8 1.7zm-105.6-.4c-.7 1.2 1.2 2.4 2.5 1.6.6-.3 1-1.2.9-1.8 0-.9-.2-.9-.6 0-.2.7-.9 1.3-1.4 1.3-.6 0-.7-.5-.4-1 .3-.6.4-1 .1-1-.3 0-.7.4-1.1.9zm-29.2 4.8c0 1.6.2 2.2.4 1.5.3-.6 1-.9 1.6-.5.8.5.8.2 0-.9-.7-.8-1-1.8-.6-2.1.3-.4.2-.7-.4-.7-.6 0-1 1.2-1 2.7zm-74 2.2c1 1.2.9 1.4-.4.9-.9-.4-1.6-.1-1.6.7 0 1.7 1.8 1.5 3.4-.5 1.7-2.1 1.6-2.6-.6-2.6-1.6 0-1.8.3-.8 1.5zm208.5-.2c.6.2 1.2.9 1.2 1.4 0 .6-.6.7-1.2.3-.7-.4-.5.1.4 1.1 1 1.1 2 1.6 2.4 1.3.9-.9-1.5-4.8-2.9-4.7-.9 0-.9.2.1.6zm-212.2 4.6c.3 1 .9 1.5 1.2 1.2.3-.3 0-1.1-.7-1.8-1-.9-1.1-.8-.5.6zm216.8 7.3c-1.8 1.4-1.8 1.5.4.4 1.2-.6 2.2-1.3 2.2-1.5 0-.8-.5-.6-2.6 1.1zm-97.9.4c-.3.5-.1 1 .4 1 .6 0 1.1-.5 1.1-1 0-.6-.2-1-.4-1-.3 0-.8.4-1.1 1zm-36.5.4c0 .2.9.6 2 .9 1.1.3 1.8.1 1.4-.4-.5-.9-3.4-1.3-3.4-.5zm35 3.1c-.8.9-.8 1.5-.2 1.5 1.2 0 2.6-1.9 1.9-2.6-.2-.2-1 .2-1.7 1.1zm-121.1 2.7c0 .2-.2 1.1-.4 2.1-.3 1.5-.1 1.6 1.1.6 1.6-1.3 1.9-2.9.4-2.9-.5 0-1 .1-1.1.2zm191.9.5c.7.3 1.6.2 1.9-.1.4-.3-.2-.6-1.3-.5-1.1 0-1.4.3-.6.6zm30.7 1.3c-.8 1.3.9 2 2.4 1.1 1-.6.9-1-.3-1.4-.8-.3-1.8-.2-2.1.3zm-131 5c-.3.5-.1 1 .4 1 .6 0 1.1-.5 1.1-1 0-.6-.2-1-.4-1-.3 0-.8.4-1.1 1zm27.2 2.1c.7.7 1.5 1 1.8.7.3-.3-.2-.9-1.2-1.2-1.4-.6-1.5-.5-.6.5zm-99.8 5.4c-.1.3-.3.9-.4 1.5-.1.5-.3 1.1-.5 1.2-.9 1.2-.5 3.5.6 3.5.7 0 1.1-.4.8-.9-.3-.4.1-.8.8-.8 1 0 1-.2-.1-.9s-1-1 .5-1.4c1.8-.4 1.8-.5-.1-.6-1.7-.1-1.8-.3-.5-1.1 1-.6 1.1-1 .3-1-.7 0-1.4.2-1.4.5zm94.1.6c0 .5.5.7 1 .4.6-.3 1-.8 1-1.1 0-.2-.4-.4-1-.4-.5 0-1 .5-1 1.1zm81 2.9c1.3.9 1.3 1 0 1s-1.3.2 0 .9c.8.6 1.8.7 2.3.4 1-.6-1.1-3.3-2.7-3.3-.6 0-.4.5.4 1zm-83 1c0 .5.5 1 1.1 1 .5 0 .7-.5.4-1-.3-.6-.8-1-1.1-1-.2 0-.4.4-.4 1zm-94.5 6c-.3.5-.1 1 .4 1 .6 0 1.1-.5 1.1-1 0-.6-.2-1-.4-1-.3 0-.8.4-1.1 1zm199.6.9c-.7.5-1.2 1.3-1 1.8.2.5 1.2.1 2.2-.9 1.8-1.9 1.2-2.4-1.2-.9zm-5.6 2.1c-.3.5-.8 1.9-1 3.1-.3 1.7-.2 1.9 1 .9.8-.6 1.9-.9 2.4-.6.5.4 1.3.1 1.7-.5.4-.7.3-.9-.2-.6-.6.3-1.6.2-2.4-.4-1-.6-1.1-.9-.2-.9.6 0 1.2-.5 1.2-1 0-1.3-1.7-1.3-2.5 0zm-10.8 2.5c.3.8.9 1.2 1.4.9 1.2-.7 1.1-1.1-.5-1.7-1-.4-1.3-.1-.9.8z"/></svg>