<?xml version="1.0" encoding="utf-8"?><svg viewBox="0 0 512.01 512.01" xmlns="http://www.w3.org/2000/svg" xmlns:xlink="http://www.w3.org/1999/xlink"><style>:root>svg{display:none}:root>svg:target{display:block}</style><svg version="1.1" id="arrow" x="0" y="0" viewBox="0 0 384.97 384.97" xml:space="preserve" xmlns="http://www.w3.org/2000/svg"><path id="aArrow_Forward" d="M384.97 192.487c0-3.212-1.323-6.28-3.525-8.59L262.357 63.606a11.942 11.942 0 00-17.011 0c-4.704 4.74-4.704 12.439 0 17.179l98.564 99.551H12.03C5.39 180.337 0 185.774 0 192.487s5.39 12.151 12.03 12.151h331.868l-98.552 99.551c-4.704 4.74-4.692 12.439 0 17.179 4.704 4.74 12.319 4.74 17.011 0l119.088-120.291c2.249-2.274 3.489-5.402 3.525-8.59z"/></svg><svg id="cart" viewBox="0 0 512 512" xmlns="http://www.w3.org/2000/svg"><path d="M494.178 193.002h-57.867l-51.246-77.161a7.517 7.517 0 00-10.418-2.103 7.517 7.517 0 00-2.103 10.418l61.382 92.422c3.236 4.872 1.399 11.661-3.83 14.253-4.374 2.169-9.853.693-12.552-3.373L307.623 61.95c-2.968-4.467-1.708-10.668 2.751-13.63 4.516-2.999 10.633-1.765 13.631 2.751l31.917 48.057a7.517 7.517 0 0010.418 2.103 7.517 7.517 0 002.103-10.418l-31.918-48.057c-7.585-11.421-23.047-14.541-34.466-6.956-11.281 7.492-14.462 23.166-6.956 34.466l81.515 122.736H135.382l81.514-122.736c7.585-11.42 4.464-26.881-6.956-34.467-11.299-7.504-26.974-4.324-34.466 6.957L75.69 193.002H17.822C7.995 193.002 0 200.997 0 210.825v51.073c0 9.827 7.995 17.822 17.822 17.822h11.252l32.851 177.61c2.466 13.335 14.1 23.014 27.661 23.014h241.483c4.151 0 7.515-3.364 7.515-7.515s-3.364-7.515-7.515-7.515H89.586a13.102 13.102 0 01-12.882-10.718L44.358 279.72h90.337a7.515 7.515 0 100-15.03H17.822a2.795 2.795 0 01-2.793-2.792v-51.073a2.797 2.797 0 012.793-2.794h47.886l-.153.231a24.7 24.7 0 00-3.66 18.674c1.493 7.401 6.359 13.803 13.084 17.236 11.079 5.655 25.126 1.947 31.998-8.4l18.424-27.742H386.6l18.424 27.742c7.484 11.27 23.18 14.45 34.465 6.956 11.42-7.584 14.541-23.046 6.957-34.467l-.153-.231h47.885a2.796 2.796 0 012.793 2.794v51.073a2.795 2.795 0 01-2.793 2.792H164.754a7.515 7.515 0 100 15.03h302.888l-32.346 174.877a13.102 13.102 0 01-12.883 10.718h-61.287c-4.151 0-7.515 3.364-7.515 7.515s3.364 7.515 7.515 7.515h61.287c13.561 0 25.195-9.679 27.661-23.014l32.851-177.611h11.252c9.827 0 17.822-7.995 17.822-17.822v-51.073c.001-9.827-7.994-17.822-17.821-17.822zM94.457 227.458c-2.728 4.109-8.287 5.563-12.676 3.311-5.142-2.638-6.912-9.364-3.706-14.191l109.92-165.506c2.963-4.46 9.163-5.721 13.631-2.752 4.517 3.001 5.751 9.116 2.751 13.632z"/><path d="M248.485 311.124v110.113c0 4.095 3.419 7.515 7.515 7.515 4.095 0 7.515-3.42 7.515-7.515V311.124a7.515 7.515 0 10-15.03 0zm-60.745-7.489a7.515 7.515 0 00-6.857 8.119l9.277 110.113c.344 4.087 4.038 7.192 8.119 6.857s7.2-4.046 6.857-8.119l-9.277-110.114c-.348-4.134-3.975-7.195-8.119-6.856zm-72.362.079a7.515 7.515 0 00-6.161 8.659l18.553 110.113c.689 4.09 4.721 6.906 8.798 6.135 3.97-.75 6.695-4.643 6.023-8.633l-18.553-110.113c-.691-4.092-4.568-6.854-8.66-6.161zm200.763 6.779l-9.277 110.114c-.344 4.078 2.776 7.778 6.857 8.119s7.775-2.776 8.12-6.857l9.277-110.113a7.515 7.515 0 00-6.857-8.119c-4.137-.339-7.772 2.72-8.12 6.856zm60.688 118.26a7.516 7.516 0 007.401-6.267l18.554-110.113a7.514 7.514 0 00-6.161-8.659 7.513 7.513 0 00-8.658 6.161L369.41 419.989c-.762 4.522 2.834 8.764 7.419 8.764z"/></svg><svg version="1.1" id="phone" x="0" y="0" viewBox="0 0 25.625 25.625" xml:space="preserve" xmlns="http://www.w3.org/2000/svg"><path d="M22.079 17.835c-1.548-1.324-3.119-2.126-4.648-.804l-.913.799c-.668.58-1.91 3.29-6.712-2.234-4.801-5.517-1.944-6.376-1.275-6.951l.918-.8c1.521-1.325.947-2.993-.15-4.71l-.662-1.04C7.535.382 6.335-.743 4.81.58l-.824.72c-.674.491-2.558 2.087-3.015 5.119-.55 3.638 1.185 7.804 5.16 12.375 3.97 4.573 7.857 6.87 11.539 6.83 3.06-.033 4.908-1.675 5.486-2.272l.827-.721c1.521-1.322.576-2.668-.973-3.995l-.931-.801z" fill="#030104"/></svg><svg version="1.1" id="search" x="0" y="0" viewBox="0 0 512.005 512.005" xml:space="preserve" xmlns="http://www.w3.org/2000/svg"><path d="M505.749 475.587l-145.6-145.6c28.203-34.837 45.184-79.104 45.184-127.317C405.333 90.926 314.41.003 202.666.003S0 90.925 0 202.669s90.923 202.667 202.667 202.667c48.213 0 92.48-16.981 127.317-45.184l145.6 145.6c4.16 4.16 9.621 6.251 15.083 6.251s10.923-2.091 15.083-6.251c8.341-8.341 8.341-21.824-.001-30.165zM202.667 362.669c-88.235 0-160-71.765-160-160s71.765-160 160-160 160 71.765 160 160-71.766 160-160 160z"/></svg><svg viewBox="0 0 181.395 181.395" id="vk" xmlns="http://www.w3.org/2000/svg"><path d="M20.618 181.395V0h62.293c22.506 0 40.074 4.174 52.699 12.521 12.623 8.346 18.936 20.785 18.936 37.313 0 8.639-2.033 16.318-6.104 23.049-4.07 6.729-10.34 11.795-18.813 15.199 10.631 2.408 18.479 7.246 23.547 14.514 5.064 7.268 7.6 15.637 7.6 25.104 0 17.691-5.939 31.064-17.814 40.115-11.879 9.055-28.904 13.58-51.082 13.58H20.618zM62.853 75.623h20.93c9.551-.166 16.695-2.014 21.43-5.545 4.734-3.529 7.102-8.699 7.102-15.51 0-7.725-2.41-13.35-7.225-16.881-4.82-3.529-12.211-5.295-22.178-5.295H62.853v43.231zm0 27.908v45.473H91.88c8.971 0 15.699-1.766 20.184-5.297 4.484-3.529 6.729-8.947 6.729-16.256 0-7.891-1.932-13.85-5.795-17.879-3.861-4.027-10.111-6.041-18.748-6.041H62.853z"/></svg></svg>